<svg id="svg" version="1.1" xmlns="http://www.w3.org/2000/svg" xmlns:xlink="http://www.w3.org/1999/xlink" width="400" height="282.8282828282828" viewBox="0, 0, 400,282.8282828282828"><g id="svgg"><path id="path0" d="M92.134 111.638 C 91.630 112.142,92.592 112.306,96.056 112.306 C 99.247 112.306,99.859 112.237,99.859 111.881 C 99.859 111.441,92.560 111.211,92.134 111.638 M12.235 112.210 C 11.636 112.452,12.149 114.842,12.801 114.849 C 12.917 114.850,13.013 115.055,13.013 115.303 C 13.013 115.965,13.925 117.397,14.347 117.397 C 14.849 117.397,14.804 116.850,14.286 116.651 C 14.052 116.562,13.861 116.184,13.861 115.811 C 13.861 115.439,13.734 115.134,13.579 115.134 C 13.423 115.134,13.296 114.816,13.296 114.427 C 13.296 113.950,13.139 113.720,12.815 113.720 C 12.430 113.720,12.405 113.649,12.687 113.366 C 13.365 112.687,22.172 112.881,22.304 113.579 C 22.363 113.890,22.588 114.246,22.804 114.370 C 23.020 114.495,23.197 114.845,23.197 115.148 C 23.197 115.452,23.388 115.700,23.621 115.700 C 23.854 115.700,24.045 115.518,24.045 115.296 C 24.045 115.074,23.854 114.701,23.621 114.468 C 23.388 114.234,23.197 113.845,23.197 113.602 C 23.197 112.203,22.521 112.021,17.405 112.045 C 14.756 112.057,12.429 112.132,12.235 112.210 M41.938 112.704 C 41.588 113.073,41.301 113.580,41.301 113.831 C 41.301 114.081,41.174 114.286,41.018 114.286 C 40.863 114.286,40.736 114.604,40.736 114.993 C 40.736 115.433,40.896 115.700,41.160 115.700 C 41.424 115.700,41.584 115.433,41.584 114.993 C 41.584 114.604,41.711 114.286,41.867 114.286 C 42.023 114.286,42.150 114.034,42.150 113.725 C 42.150 112.922,42.949 112.804,47.628 112.915 C 51.281 113.002,52.863 113.275,51.839 113.641 C 51.644 113.710,51.485 114.011,51.485 114.309 C 51.485 114.607,51.360 114.851,51.208 114.851 C 51.055 114.851,50.850 115.170,50.753 115.559 C 50.655 115.948,50.462 116.266,50.323 116.266 C 50.184 116.266,50.071 116.521,50.071 116.832 C 50.071 117.143,49.943 117.397,49.788 117.397 C 49.632 117.397,49.505 117.656,49.505 117.972 C 49.505 118.288,49.314 118.620,49.081 118.710 C 48.847 118.799,48.656 119.177,48.656 119.549 C 48.656 119.922,48.529 120.226,48.373 120.226 C 48.218 120.226,48.091 120.467,48.091 120.762 C 48.091 121.056,47.902 121.370,47.671 121.458 C 47.433 121.549,47.323 121.807,47.417 122.052 C 47.514 122.305,47.395 122.557,47.130 122.659 C 46.880 122.754,46.676 123.137,46.676 123.510 C 46.676 123.882,46.549 124.187,46.393 124.187 C 46.238 124.187,46.110 124.428,46.110 124.722 C 46.110 125.017,45.919 125.331,45.686 125.421 C 45.200 125.607,45.109 126.167,45.565 126.167 C 46.064 126.167,46.676 125.399,46.676 124.773 C 46.676 124.440,46.860 124.187,47.100 124.187 C 47.364 124.187,47.525 123.920,47.525 123.479 C 47.525 123.091,47.652 122.772,47.808 122.772 C 47.963 122.772,48.091 122.572,48.091 122.328 C 48.091 122.083,48.276 121.698,48.503 121.471 C 48.730 121.244,48.843 120.871,48.755 120.642 C 48.656 120.383,48.766 120.226,49.050 120.226 C 49.347 120.226,49.505 119.980,49.505 119.519 C 49.505 119.130,49.632 118.812,49.788 118.812 C 49.943 118.812,50.071 118.494,50.071 118.105 C 50.071 117.665,50.231 117.397,50.495 117.397 C 50.731 117.397,50.919 117.146,50.919 116.832 C 50.919 116.521,51.047 116.266,51.202 116.266 C 51.358 116.266,51.485 115.948,51.485 115.559 C 51.485 115.170,51.612 114.851,51.768 114.851 C 51.924 114.851,52.051 114.639,52.051 114.379 C 52.051 114.119,52.272 113.662,52.542 113.363 C 53.520 112.283,52.488 112.022,47.259 112.028 C 42.699 112.032,42.557 112.050,41.938 112.704 M88.732 112.211 C 88.297 112.646,88.610 112.871,89.644 112.871 C 90.362 112.871,90.802 112.724,90.909 112.447 C 91.078 112.005,89.147 111.796,88.732 112.211 M100.875 112.415 C 101.063 112.903,101.698 113.085,102.629 112.918 C 103.667 112.731,103.176 112.172,101.890 112.077 C 100.939 112.007,100.744 112.072,100.875 112.415 M143.329 112.211 C 142.885 112.654,143.133 113.501,143.635 113.260 C 144.225 112.977,150.888 112.767,151.823 113.001 L 152.475 113.165 152.475 130.015 C 152.475 143.369,152.549 146.840,152.829 146.747 C 153.408 146.554,153.338 112.666,152.758 112.299 C 152.282 111.998,143.623 111.917,143.329 112.211 M166.242 112.211 C 165.560 112.893,166.236 113.020,170.009 112.916 C 172.184 112.856,174.285 112.888,174.677 112.986 L 175.389 113.165 175.389 129.301 C 175.389 139.986,175.485 145.377,175.672 145.262 C 176.207 144.931,176.045 112.401,175.507 112.194 C 174.897 111.960,166.478 111.976,166.242 112.211 M200.549 112.093 C 200.462 112.451,200.426 159.211,200.512 159.477 C 201.028 161.072,201.132 157.229,201.132 136.522 C 201.132 115.530,201.176 113.198,201.579 113.043 C 201.825 112.949,203.533 112.871,205.375 112.871 C 207.216 112.871,208.925 112.949,209.171 113.043 C 209.566 113.195,209.618 114.296,209.618 122.520 L 209.618 131.825 217.818 131.825 L 226.018 131.825 226.092 122.419 L 226.167 113.013 229.918 112.934 C 232.186 112.886,233.892 112.974,234.232 113.156 C 234.787 113.453,234.795 113.791,234.795 136.644 C 234.795 151.652,234.893 159.830,235.073 159.830 C 235.254 159.830,235.328 151.474,235.285 135.997 L 235.219 112.164 230.693 112.084 C 224.602 111.976,225.177 110.932,225.177 122.096 L 225.177 130.976 217.822 130.976 L 210.467 130.976 210.467 121.674 L 210.467 112.372 209.830 112.201 C 209.233 112.041,200.586 111.941,200.549 112.093 M260.184 112.328 C 259.604 112.666,259.393 159.830,259.972 159.830 C 260.158 159.830,260.255 151.872,260.255 136.522 C 260.255 115.530,260.299 113.198,260.702 113.043 C 260.948 112.949,266.670 112.871,273.417 112.871 L 285.685 112.871 285.770 117.044 C 285.817 119.339,285.842 121.251,285.826 121.294 C 285.809 121.336,282.149 121.375,277.693 121.381 C 270.826 121.389,269.590 121.453,269.590 121.798 C 269.590 122.601,285.336 122.382,286.013 121.570 C 286.752 120.684,286.824 113.816,286.106 112.720 L 285.649 112.023 273.164 112.031 C 265.211 112.037,260.499 112.145,260.184 112.328 M310.238 112.204 C 309.552 112.891,310.262 113.011,314.781 112.974 C 318.572 112.943,319.519 112.858,319.519 112.550 C 319.519 112.134,310.639 111.804,310.238 112.204 M355.493 112.211 C 355.050 112.654,355.282 159.830,355.727 159.830 C 356.098 159.830,356.158 156.968,356.222 136.421 L 356.294 113.013 364.427 112.938 C 371.901 112.869,373.969 112.658,371.676 112.199 C 370.487 111.962,355.732 111.972,355.493 112.211 M86.563 113.154 C 86.563 113.310,86.245 113.437,85.856 113.437 C 85.416 113.437,85.149 113.597,85.149 113.861 C 85.149 114.136,84.873 114.286,84.371 114.286 C 83.943 114.286,83.223 114.604,82.771 114.993 C 82.319 115.382,81.806 115.700,81.631 115.700 C 81.456 115.700,81.130 115.955,80.905 116.266 C 80.681 116.577,80.354 116.832,80.179 116.832 C 80.004 116.832,79.594 117.062,79.269 117.344 C 78.944 117.626,78.352 118.102,77.953 118.402 C 77.554 118.701,77.228 119.093,77.228 119.273 C 77.228 119.453,77.039 119.672,76.808 119.761 C 76.569 119.853,76.461 120.109,76.556 120.357 C 76.663 120.637,76.561 120.792,76.268 120.792 C 76.018 120.792,75.813 120.983,75.813 121.216 C 75.813 121.450,75.684 121.641,75.526 121.641 C 75.368 121.641,75.026 122.086,74.766 122.631 C 74.507 123.175,74.190 123.621,74.064 123.621 C 73.937 123.621,73.833 123.939,73.833 124.328 C 73.833 124.717,73.669 125.035,73.469 125.035 C 73.269 125.035,73.083 125.320,73.057 125.668 C 73.031 126.015,72.877 126.344,72.714 126.398 C 72.552 126.453,72.419 126.797,72.419 127.164 C 72.419 127.531,72.291 127.909,72.136 128.006 C 71.980 128.102,71.853 128.682,71.853 129.295 C 71.853 129.909,71.980 130.410,72.136 130.410 C 72.291 130.410,72.419 129.837,72.419 129.137 C 72.419 128.194,72.529 127.864,72.843 127.864 C 73.107 127.864,73.267 127.597,73.267 127.157 C 73.267 126.768,73.395 126.450,73.550 126.450 C 73.706 126.450,73.833 126.186,73.833 125.864 C 73.833 125.542,73.992 125.100,74.187 124.884 C 75.072 123.896,75.248 123.614,75.248 123.179 C 75.248 122.922,75.566 122.462,75.955 122.156 C 76.344 121.850,76.662 121.473,76.662 121.317 C 76.662 121.162,76.821 120.866,77.016 120.659 C 77.210 120.453,77.741 119.825,78.196 119.265 C 78.651 118.705,79.192 118.246,79.399 118.246 C 79.605 118.246,79.774 118.119,79.774 117.963 C 79.774 117.808,79.918 117.680,80.095 117.680 C 80.272 117.680,80.711 117.362,81.071 116.973 C 81.432 116.584,81.924 116.266,82.165 116.266 C 82.406 116.266,82.603 116.139,82.603 115.983 C 82.603 115.827,82.793 115.700,83.027 115.700 C 83.260 115.700,83.451 115.501,83.451 115.257 C 83.451 114.950,83.617 114.866,83.987 114.983 C 84.295 115.081,84.708 114.969,84.957 114.720 C 85.196 114.481,85.655 114.286,85.977 114.286 C 86.299 114.286,86.563 114.167,86.563 114.022 C 86.563 113.876,86.903 113.717,87.319 113.668 C 88.420 113.538,88.517 112.871,87.435 112.871 C 86.955 112.871,86.563 112.999,86.563 113.154 M103.819 113.329 C 103.819 113.651,103.991 113.741,104.402 113.633 C 104.759 113.540,105.045 113.637,105.140 113.883 C 105.224 114.105,105.599 114.286,105.971 114.286 C 106.343 114.286,106.648 114.399,106.648 114.538 C 106.648 114.677,106.966 114.870,107.355 114.968 C 107.744 115.065,108.062 115.270,108.062 115.423 C 108.062 115.575,108.270 115.700,108.525 115.700 C 108.779 115.700,109.282 116.018,109.643 116.407 C 110.003 116.796,110.445 117.115,110.624 117.115 C 111.068 117.115,115.417 121.541,115.417 121.993 C 115.417 122.192,115.736 122.594,116.124 122.886 C 116.513 123.178,116.832 123.654,116.832 123.943 C 116.832 124.233,116.959 124.470,117.115 124.470 C 117.270 124.470,117.397 124.724,117.397 125.035 C 117.397 125.347,117.525 125.601,117.680 125.601 C 117.836 125.601,117.963 125.983,117.963 126.450 C 117.963 127.016,118.105 127.298,118.388 127.298 C 118.670 127.298,118.812 127.016,118.812 126.450 C 118.812 125.983,118.685 125.601,118.529 125.601 C 118.373 125.601,118.246 125.343,118.246 125.026 C 118.246 124.710,118.055 124.379,117.822 124.289 C 117.588 124.199,117.397 123.885,117.397 123.591 C 117.397 123.296,117.270 123.055,117.115 123.055 C 116.959 123.055,116.832 122.914,116.832 122.742 C 116.832 122.570,116.513 122.179,116.124 121.873 C 115.736 121.567,115.417 121.126,115.417 120.893 C 115.417 120.402,114.749 119.661,114.306 119.661 C 114.139 119.661,114.003 119.523,114.003 119.355 C 114.003 118.913,111.145 116.266,110.668 116.266 C 110.446 116.266,110.015 115.948,109.709 115.559 C 109.403 115.170,108.907 114.851,108.607 114.851 C 108.308 114.851,108.062 114.724,108.062 114.569 C 108.062 114.413,107.758 114.286,107.385 114.286 C 107.013 114.286,106.635 114.095,106.546 113.861 C 106.456 113.628,106.124 113.437,105.808 113.437 C 105.492 113.437,105.233 113.310,105.233 113.154 C 105.233 112.999,104.915 112.871,104.526 112.871 C 104.063 112.871,103.819 113.029,103.819 113.329 M374.052 113.225 C 374.130 113.449,374.658 113.562,375.490 113.533 C 376.454 113.499,376.803 113.593,376.803 113.886 C 376.803 114.124,377.090 114.286,377.511 114.286 C 378.319 114.286,378.465 113.779,377.723 113.549 C 377.450 113.465,377.007 113.278,376.737 113.134 C 375.977 112.728,373.902 112.799,374.052 113.225 M378.574 114.639 C 378.640 114.834,378.969 114.953,379.305 114.904 C 379.641 114.856,379.915 114.941,379.915 115.095 C 379.915 115.509,381.597 117.115,382.031 117.115 C 382.237 117.115,382.649 117.584,382.947 118.158 C 383.245 118.732,383.639 119.252,383.824 119.313 C 384.267 119.461,384.254 118.589,383.805 118.116 C 383.610 117.911,383.211 117.411,382.917 117.004 C 382.622 116.598,382.281 116.266,382.159 116.266 C 382.036 116.266,381.463 115.820,380.886 115.276 C 379.860 114.309,378.316 113.884,378.574 114.639 M23.762 116.690 C 23.762 116.924,23.952 117.115,24.183 117.115 C 24.446 117.115,24.579 117.342,24.537 117.720 C 24.500 118.053,24.629 118.382,24.823 118.451 C 25.298 118.619,25.269 117.402,24.783 116.761 C 24.322 116.154,23.762 116.115,23.762 116.690 M39.816 116.893 C 39.544 117.234,39.321 117.678,39.321 117.879 C 39.321 118.081,39.194 118.246,39.038 118.246 C 38.883 118.246,38.755 118.620,38.755 119.078 C 38.755 119.536,38.628 119.989,38.472 120.085 C 38.317 120.181,38.190 120.507,38.190 120.809 C 38.190 121.111,38.317 121.358,38.472 121.358 C 38.628 121.358,38.755 121.040,38.755 120.651 C 38.755 120.211,38.916 119.943,39.180 119.943 C 39.444 119.943,39.604 119.676,39.604 119.236 C 39.604 118.847,39.731 118.529,39.887 118.529 C 40.042 118.529,40.170 118.224,40.170 117.852 C 40.170 117.480,40.369 117.099,40.612 117.005 C 40.855 116.912,40.975 116.707,40.878 116.551 C 40.615 116.126,40.365 116.206,39.816 116.893 M14.616 117.586 C 14.260 117.942,14.427 118.812,14.851 118.812 C 15.116 118.812,15.276 119.079,15.276 119.519 C 15.276 119.908,15.403 120.226,15.559 120.226 C 15.714 120.226,15.842 120.545,15.842 120.934 C 15.842 121.322,15.969 121.641,16.124 121.641 C 16.280 121.641,16.407 121.899,16.407 122.215 C 16.407 122.531,16.598 122.863,16.832 122.953 C 17.065 123.042,17.256 123.357,17.256 123.651 C 17.256 123.946,17.383 124.187,17.539 124.187 C 17.694 124.187,17.822 124.380,17.822 124.617 C 17.822 124.853,18.140 125.551,18.529 126.167 C 18.918 126.783,19.236 127.416,19.236 127.572 C 19.236 127.928,20.133 128.996,20.431 128.996 C 20.552 128.996,20.651 128.805,20.651 128.571 C 20.651 128.338,20.523 128.147,20.368 128.147 C 20.212 128.147,20.085 127.829,20.085 127.440 C 20.085 127.000,19.925 126.733,19.661 126.733 C 19.397 126.733,19.236 126.466,19.236 126.025 C 19.236 125.636,19.109 125.318,18.953 125.318 C 18.798 125.318,18.670 125.064,18.670 124.752 C 18.670 124.441,18.557 124.187,18.418 124.187 C 18.279 124.187,18.086 123.868,17.989 123.479 C 17.891 123.091,17.686 122.772,17.534 122.772 C 17.381 122.772,17.256 122.518,17.256 122.207 C 17.256 121.895,17.129 121.641,16.973 121.641 C 16.818 121.641,16.690 121.322,16.690 120.934 C 16.690 120.545,16.577 120.226,16.438 120.226 C 16.299 120.226,16.106 119.908,16.008 119.519 C 15.911 119.130,15.706 118.812,15.553 118.812 C 15.401 118.812,15.276 118.494,15.276 118.105 C 15.276 117.418,15.000 117.201,14.616 117.586 M25.177 119.378 C 25.177 119.689,25.346 119.943,25.553 119.943 C 25.760 119.943,25.919 120.217,25.906 120.551 C 25.894 120.886,26.043 121.214,26.238 121.282 C 26.721 121.450,26.682 120.777,26.146 119.704 C 25.642 118.693,25.177 118.536,25.177 119.378 M384.031 119.921 C 383.943 120.064,384.062 120.373,384.297 120.608 C 384.532 120.842,384.724 121.362,384.724 121.762 C 384.724 122.220,384.881 122.489,385.149 122.489 C 385.414 122.489,385.573 122.221,385.573 121.773 C 385.573 121.379,385.382 120.984,385.149 120.894 C 384.915 120.805,384.724 120.491,384.724 120.196 C 384.724 119.637,384.308 119.472,384.031 119.921 M91.655 121.216 C 91.655 121.521,91.966 121.641,92.756 121.641 C 93.474 121.641,93.914 121.493,94.020 121.216 C 94.150 120.878,93.926 120.792,92.919 120.792 C 91.984 120.792,91.655 120.903,91.655 121.216 M96.747 121.045 C 96.747 121.404,97.485 121.641,98.609 121.641 C 99.280 121.641,99.576 121.511,99.576 121.216 C 99.576 120.896,99.230 120.792,98.161 120.792 C 97.383 120.792,96.747 120.906,96.747 121.045 M89.785 121.762 C 89.691 122.007,89.441 122.207,89.229 122.207 C 87.777 122.207,83.073 126.555,82.420 128.501 C 82.328 128.773,82.141 128.996,82.004 128.996 C 81.866 128.996,81.754 129.325,81.754 129.727 C 81.754 130.613,82.418 130.516,82.551 129.610 C 82.601 129.272,82.760 128.996,82.905 128.996 C 83.050 128.996,83.168 128.805,83.168 128.571 C 83.168 128.338,83.296 128.147,83.451 128.147 C 83.607 128.147,83.734 127.951,83.734 127.711 C 83.734 127.267,85.896 125.035,86.326 125.035 C 86.456 125.035,86.563 124.844,86.563 124.611 C 86.563 124.375,86.814 124.187,87.129 124.187 C 87.440 124.187,87.694 124.059,87.694 123.904 C 87.694 123.748,87.885 123.621,88.119 123.621 C 88.352 123.621,88.543 123.494,88.543 123.338 C 88.543 123.182,88.725 123.055,88.947 123.055 C 89.170 123.055,89.529 122.878,89.745 122.661 C 89.962 122.445,90.360 122.222,90.629 122.166 C 91.353 122.017,91.329 121.513,90.593 121.409 C 90.210 121.354,89.887 121.496,89.785 121.762 M100.141 121.782 C 100.141 122.023,100.395 122.207,100.727 122.207 C 101.050 122.207,101.504 122.397,101.738 122.631 C 101.971 122.864,102.383 123.055,102.652 123.055 C 102.922 123.055,103.629 123.501,104.224 124.045 C 104.818 124.590,105.451 125.035,105.631 125.035 C 105.810 125.035,106.141 125.290,106.365 125.601 C 106.589 125.912,106.936 126.167,107.135 126.167 C 107.334 126.167,107.496 126.485,107.496 126.874 C 107.496 127.263,107.609 127.581,107.747 127.581 C 107.885 127.581,108.209 128.027,108.468 128.571 C 108.726 129.116,109.059 129.562,109.207 129.562 C 109.355 129.562,109.477 129.880,109.477 130.269 C 109.477 130.709,109.637 130.976,109.901 130.976 C 110.139 130.976,110.325 130.724,110.325 130.401 C 110.325 130.085,110.134 129.753,109.901 129.664 C 109.668 129.574,109.477 129.196,109.477 128.824 C 109.477 128.452,109.349 128.147,109.194 128.147 C 109.038 128.147,108.911 127.970,108.911 127.753 C 108.911 127.536,108.720 127.286,108.487 127.196 C 108.253 127.107,108.062 126.838,108.062 126.600 C 108.062 126.362,107.935 126.167,107.779 126.167 C 107.624 126.167,107.496 126.031,107.496 125.864 C 107.496 125.472,106.777 124.752,106.385 124.752 C 106.218 124.752,106.082 124.625,106.082 124.470 C 106.082 124.314,105.900 124.187,105.678 124.187 C 105.456 124.187,105.013 123.854,104.693 123.447 C 104.339 122.997,103.944 122.772,103.682 122.873 C 103.419 122.974,103.253 122.877,103.253 122.622 C 103.253 122.349,102.962 122.207,102.405 122.207 C 101.839 122.207,101.556 122.065,101.556 121.782 C 101.556 121.518,101.289 121.358,100.849 121.358 C 100.409 121.358,100.141 121.518,100.141 121.782 M364.553 121.539 C 364.105 121.987,364.334 132.893,364.801 133.360 C 365.307 133.867,368.883 134.008,368.883 133.522 C 368.883 133.362,368.081 133.239,367.044 133.239 L 365.205 133.239 365.205 127.723 L 365.205 122.207 368.906 122.207 C 371.741 122.207,372.580 122.124,372.490 121.853 C 372.361 121.466,364.920 121.172,364.553 121.539 M26.591 122.207 C 26.591 122.518,26.719 122.772,26.874 122.772 C 27.030 122.772,27.157 122.518,27.157 122.207 C 27.157 121.895,27.030 121.641,26.874 121.641 C 26.719 121.641,26.591 121.895,26.591 122.207 M37.341 122.065 C 37.341 122.298,37.214 122.489,37.058 122.489 C 36.902 122.489,36.775 122.858,36.775 123.308 C 36.775 123.774,36.593 124.196,36.351 124.289 C 36.117 124.379,35.926 124.647,35.926 124.885 C 35.926 125.123,36.117 125.318,36.351 125.318 C 36.584 125.318,36.775 125.077,36.775 124.783 C 36.775 124.488,36.980 124.169,37.229 124.073 C 37.553 123.949,37.633 123.696,37.507 123.194 C 37.377 122.675,37.443 122.489,37.760 122.489 C 37.996 122.489,38.190 122.298,38.190 122.065 C 38.190 121.832,37.999 121.641,37.765 121.641 C 37.532 121.641,37.341 121.832,37.341 122.065 M372.843 122.496 C 372.843 122.656,373.129 122.897,373.479 123.032 C 374.280 123.342,375.389 124.301,375.389 124.685 C 375.389 124.844,375.580 125.048,375.813 125.138 C 376.102 125.248,376.238 125.122,376.238 124.744 C 376.238 124.437,376.110 124.187,375.955 124.187 C 375.799 124.187,375.672 124.017,375.672 123.810 C 375.672 123.603,375.354 123.263,374.965 123.055 C 374.576 122.847,374.257 122.571,374.257 122.442 C 374.257 122.312,373.939 122.207,373.550 122.207 C 373.161 122.207,372.843 122.337,372.843 122.496 M27.157 123.659 C 27.157 123.991,27.475 124.558,27.864 124.919 C 28.262 125.287,28.571 125.889,28.571 126.295 C 28.571 127.086,29.057 127.271,29.322 126.581 C 29.414 126.342,29.282 125.918,29.030 125.639 C 28.778 125.360,28.571 124.920,28.571 124.659 C 28.571 124.399,28.444 124.187,28.289 124.187 C 28.133 124.187,28.006 123.932,28.006 123.621 C 28.006 123.307,27.817 123.055,27.581 123.055 C 27.337 123.055,27.157 123.311,27.157 123.659 M385.429 123.627 C 385.208 124.324,385.518 125.884,385.878 125.884 C 386.021 125.884,386.139 125.248,386.139 124.470 C 386.139 123.034,385.760 122.585,385.429 123.627 M35.361 126.308 C 35.361 126.697,35.233 127.016,35.078 127.016 C 34.922 127.016,34.795 127.334,34.795 127.723 C 34.795 128.163,34.635 128.430,34.371 128.430 C 34.135 128.430,33.946 128.681,33.946 128.996 C 33.946 129.307,33.819 129.562,33.663 129.562 C 33.508 129.562,33.380 129.880,33.380 130.269 C 33.380 130.658,33.267 130.976,33.128 130.976 C 32.990 130.976,32.796 131.294,32.699 131.683 C 32.484 132.538,31.966 132.623,31.966 131.804 C 31.966 131.482,31.807 131.041,31.612 130.824 C 30.710 129.817,30.552 129.547,30.552 129.008 C 30.552 128.690,30.424 128.430,30.269 128.430 C 30.113 128.430,29.986 128.112,29.986 127.723 C 29.986 127.283,29.826 127.016,29.562 127.016 C 29.298 127.016,29.137 127.283,29.137 127.723 C 29.137 128.184,29.295 128.430,29.592 128.430 C 29.936 128.430,30.004 128.602,29.870 129.137 C 29.739 129.659,29.805 129.844,30.122 129.844 C 30.392 129.844,30.552 130.108,30.552 130.552 C 30.552 130.941,30.679 131.259,30.835 131.259 C 30.990 131.259,31.117 131.517,31.117 131.833 C 31.117 132.150,31.308 132.481,31.542 132.571 C 31.775 132.661,31.966 133.034,31.966 133.402 C 31.966 133.879,32.087 134.024,32.390 133.907 C 32.624 133.818,32.815 133.503,32.815 133.209 C 32.815 132.914,32.942 132.673,33.098 132.673 C 33.253 132.673,33.380 132.355,33.380 131.966 C 33.380 131.526,33.541 131.259,33.805 131.259 C 34.069 131.259,34.229 130.992,34.229 130.552 C 34.229 130.163,34.356 129.844,34.512 129.844 C 34.668 129.844,34.795 129.526,34.795 129.137 C 34.795 128.748,34.922 128.430,35.078 128.430 C 35.233 128.430,35.361 128.171,35.361 127.855 C 35.361 127.539,35.552 127.207,35.785 127.118 C 36.018 127.028,36.209 126.650,36.209 126.278 C 36.209 125.865,36.044 125.601,35.785 125.601 C 35.521 125.601,35.361 125.868,35.361 126.308 M376.238 127.453 C 376.238 129.066,376.146 129.391,375.530 129.961 C 375.141 130.322,374.823 130.740,374.823 130.890 C 374.823 131.040,374.505 131.334,374.116 131.542 C 373.727 131.750,373.409 132.026,373.409 132.155 C 373.409 132.285,372.825 132.390,372.112 132.390 C 371.202 132.390,370.850 132.496,370.932 132.744 C 371.112 133.294,373.094 133.368,373.300 132.832 C 373.393 132.589,373.710 132.390,374.005 132.390 C 374.299 132.390,374.540 132.263,374.540 132.107 C 374.540 131.952,374.723 131.825,374.946 131.825 C 375.168 131.825,375.432 131.570,375.530 131.259 C 375.629 130.948,375.829 130.693,375.974 130.693 C 376.119 130.693,376.238 130.449,376.238 130.151 C 376.238 129.853,376.373 129.564,376.539 129.508 C 376.924 129.380,377.212 127.273,376.974 126.325 C 376.636 124.978,376.238 125.589,376.238 127.453 M44.696 127.119 C 44.696 127.514,44.487 127.953,44.232 128.096 C 43.977 128.239,43.857 128.500,43.966 128.676 C 44.241 129.122,44.696 129.076,44.696 128.602 C 44.696 128.385,44.896 128.131,45.140 128.037 C 45.655 127.840,45.587 126.696,45.050 126.519 C 44.829 126.446,44.696 126.672,44.696 127.119 M118.812 128.430 C 118.812 129.265,119.175 129.553,119.521 128.993 C 119.748 128.625,119.419 127.581,119.076 127.581 C 118.931 127.581,118.812 127.963,118.812 128.430 M385.448 129.739 C 385.221 130.644,385.519 132.174,385.879 131.952 C 386.213 131.745,386.220 128.996,385.886 128.996 C 385.748 128.996,385.550 129.330,385.448 129.739 M20.651 129.909 C 20.651 130.282,20.905 130.860,21.216 131.194 C 21.528 131.528,21.782 132.061,21.782 132.379 C 21.782 132.703,21.968 132.956,22.207 132.956 C 22.471 132.956,22.631 133.223,22.631 133.663 C 22.631 134.103,22.791 134.371,23.055 134.371 C 23.293 134.371,23.479 134.118,23.479 133.796 C 23.479 133.480,23.289 133.148,23.055 133.058 C 22.822 132.969,22.631 132.591,22.631 132.219 C 22.631 131.846,22.504 131.542,22.348 131.542 C 22.192 131.542,22.065 131.351,22.065 131.117 C 22.065 130.884,21.876 130.693,21.644 130.693 C 21.382 130.693,21.248 130.465,21.290 130.088 C 21.328 129.755,21.199 129.426,21.004 129.357 C 20.785 129.279,20.651 129.489,20.651 129.909 M43.281 129.986 C 43.281 130.375,43.154 130.693,42.999 130.693 C 42.843 130.693,42.716 130.884,42.716 131.117 C 42.716 131.803,43.445 131.604,43.802 130.821 C 44.249 129.840,44.214 129.279,43.706 129.279 C 43.442 129.279,43.281 129.546,43.281 129.986 M119.559 129.758 C 119.182 130.134,119.374 131.542,119.802 131.542 C 120.083 131.542,120.226 131.261,120.226 130.710 C 120.226 129.879,119.901 129.415,119.559 129.758 M81.077 130.927 C 80.854 131.287,81.220 132.404,81.503 132.229 C 81.839 132.022,81.825 130.693,81.488 130.693 C 81.341 130.693,81.156 130.798,81.077 130.927 M71.004 132.673 C 71.004 133.993,71.099 134.371,71.429 134.371 C 71.759 134.371,71.853 133.993,71.853 132.673 C 71.853 131.353,71.759 130.976,71.429 130.976 C 71.099 130.976,71.004 131.353,71.004 132.673 M110.098 132.863 C 110.221 134.751,110.891 134.849,110.891 132.980 C 110.891 131.868,110.791 131.542,110.451 131.542 C 110.104 131.542,110.030 131.819,110.098 132.863 M269.590 131.962 C 269.590 132.321,270.706 132.392,277.298 132.457 L 285.007 132.532 285.007 136.351 L 285.007 140.170 277.298 140.245 C 270.706 140.309,269.590 140.381,269.590 140.740 C 269.590 141.396,285.574 141.369,285.825 140.712 C 285.920 140.466,285.997 138.426,285.997 136.179 L 285.997 132.093 285.272 131.818 C 283.985 131.328,269.590 131.460,269.590 131.962 M41.949 132.390 C 41.868 132.702,41.689 132.956,41.551 132.956 C 41.414 132.956,41.301 133.274,41.301 133.663 C 41.301 134.103,41.462 134.371,41.726 134.371 C 41.990 134.371,42.150 134.103,42.150 133.663 C 42.150 133.274,42.277 132.956,42.433 132.956 C 42.588 132.956,42.716 132.702,42.716 132.390 C 42.716 132.079,42.576 131.825,42.406 131.825 C 42.236 131.825,42.030 132.079,41.949 132.390 M120.120 133.274 C 119.701 135.371,119.999 140.311,120.545 140.311 C 120.681 140.311,120.792 138.529,120.792 136.351 C 120.792 132.603,120.512 131.318,120.120 133.274 M384.724 133.121 C 384.724 134.007,385.389 133.910,385.522 133.005 C 385.582 132.597,385.463 132.390,385.168 132.390 C 384.879 132.390,384.724 132.646,384.724 133.121 M80.339 136.351 C 80.339 139.522,80.401 140.028,80.789 140.028 C 81.168 140.028,81.215 139.751,81.087 138.260 C 80.900 136.074,80.900 136.259,81.086 134.300 C 81.216 132.936,81.168 132.673,80.790 132.673 C 80.401 132.673,80.339 133.175,80.339 136.351 M384.158 134.662 C 384.158 134.978,383.962 135.312,383.722 135.404 C 383.482 135.496,383.321 135.781,383.365 136.037 C 383.454 136.563,380.340 139.745,379.736 139.745 C 379.523 139.745,379.349 139.873,379.349 140.028 C 379.349 140.184,379.031 140.311,378.642 140.311 C 378.201 140.311,377.935 140.471,377.935 140.737 C 377.935 141.040,377.680 141.141,377.046 141.090 C 376.533 141.049,376.105 141.168,376.033 141.372 C 375.880 141.803,377.530 141.869,377.793 141.443 C 377.890 141.287,378.279 141.160,378.659 141.160 C 379.084 141.160,379.349 140.997,379.349 140.736 C 379.349 140.471,379.617 140.311,380.057 140.311 C 380.446 140.311,380.764 140.205,380.764 140.076 C 380.764 139.947,381.082 139.671,381.471 139.463 C 381.860 139.254,382.178 138.969,382.178 138.829 C 382.178 138.476,382.921 137.765,383.290 137.765 C 383.456 137.765,383.593 137.574,383.593 137.341 C 383.593 137.107,383.720 136.917,383.876 136.917 C 384.031 136.917,384.158 136.662,384.158 136.351 C 384.158 136.040,384.286 135.785,384.441 135.785 C 384.597 135.785,384.724 135.403,384.724 134.936 C 384.724 134.470,384.597 134.088,384.441 134.088 C 384.286 134.088,384.158 134.346,384.158 134.662 M23.197 135.219 C 23.197 135.534,23.385 135.785,23.621 135.785 C 23.885 135.785,24.045 136.052,24.045 136.492 C 24.045 136.881,24.173 137.199,24.328 137.199 C 24.484 137.199,24.611 137.454,24.611 137.765 C 24.611 138.076,24.736 138.331,24.889 138.331 C 25.041 138.331,25.246 138.649,25.344 139.038 C 25.441 139.427,25.635 139.745,25.773 139.745 C 25.912 139.745,26.025 140.064,26.025 140.453 C 26.025 140.842,26.153 141.160,26.308 141.160 C 26.464 141.160,26.591 141.414,26.591 141.726 C 26.591 142.037,26.719 142.291,26.874 142.291 C 27.057 142.291,27.157 145.403,27.157 151.061 C 27.157 158.667,27.213 159.830,27.581 159.830 C 28.102 159.830,28.060 160.720,28.009 150.778 C 27.984 145.927,27.856 142.393,27.703 142.339 C 27.558 142.287,27.440 141.950,27.440 141.591 C 27.440 141.231,27.251 140.865,27.020 140.776 C 26.783 140.685,26.673 140.428,26.767 140.183 C 26.864 139.930,26.744 139.678,26.479 139.576 C 26.230 139.480,26.025 139.161,26.025 138.866 C 26.025 138.572,25.898 138.331,25.743 138.331 C 25.587 138.331,25.460 138.136,25.460 137.898 C 25.460 137.660,25.269 137.391,25.035 137.302 C 24.802 137.212,24.611 136.923,24.611 136.660 C 24.611 135.918,23.944 134.658,23.550 134.656 C 23.356 134.654,23.197 134.908,23.197 135.219 M40.382 135.243 C 40.110 135.541,39.887 136.040,39.887 136.351 C 39.887 136.662,39.760 136.917,39.604 136.917 C 39.448 136.917,39.321 137.235,39.321 137.624 C 39.321 138.043,39.159 138.331,38.923 138.331 C 38.665 138.331,38.577 138.529,38.673 138.897 C 38.776 139.290,38.682 139.463,38.364 139.463 C 38.065 139.463,37.907 139.707,37.907 140.170 C 37.907 140.559,37.779 140.877,37.624 140.877 C 37.468 140.877,37.341 141.195,37.341 141.584 C 37.341 142.024,37.181 142.291,36.917 142.291 C 36.548 142.291,36.492 143.454,36.492 151.061 C 36.492 158.667,36.548 159.830,36.917 159.830 C 37.285 159.830,37.341 158.667,37.341 151.061 C 37.341 145.403,37.441 142.291,37.624 142.291 C 37.779 142.291,37.907 142.031,37.907 141.714 C 37.907 141.174,38.065 140.904,38.967 139.897 C 39.162 139.680,39.321 139.253,39.321 138.947 C 39.321 138.642,39.512 138.318,39.745 138.229 C 39.979 138.139,40.170 137.807,40.170 137.491 C 40.170 137.175,40.297 136.917,40.453 136.917 C 40.608 136.917,40.736 136.662,40.736 136.351 C 40.736 136.040,40.863 135.785,41.018 135.785 C 41.174 135.785,41.301 135.530,41.301 135.219 C 41.301 134.525,41.031 134.532,40.382 135.243 M71.061 139.935 C 71.183 142.238,71.853 142.337,71.853 140.052 C 71.853 138.686,71.762 138.331,71.414 138.331 C 71.060 138.331,70.992 138.638,71.061 139.935 M110.156 138.726 C 109.898 139.398,110.165 141.251,110.537 141.374 C 110.792 141.457,110.891 141.047,110.891 139.910 C 110.891 138.430,110.507 137.811,110.156 138.726 M81.031 140.926 C 80.899 141.341,80.985 141.650,81.295 141.877 C 81.547 142.061,81.754 142.548,81.754 142.959 C 81.754 143.370,81.881 143.706,82.037 143.706 C 82.192 143.706,82.320 143.901,82.320 144.139 C 82.320 144.377,82.511 144.645,82.744 144.735 C 82.977 144.825,83.168 145.139,83.168 145.433 C 83.168 145.728,83.296 145.969,83.451 145.969 C 83.607 145.969,83.734 146.096,83.734 146.252 C 83.734 146.596,85.965 148.798,86.314 148.798 C 86.451 148.798,86.563 148.925,86.563 149.081 C 86.563 149.236,86.818 149.364,87.129 149.364 C 87.440 149.364,87.694 149.491,87.694 149.646 C 87.694 149.802,87.943 149.929,88.246 149.929 C 88.550 149.929,88.915 150.138,89.058 150.393 C 89.200 150.649,89.461 150.768,89.637 150.660 C 90.096 150.376,90.032 149.929,89.533 149.929 C 89.300 149.929,89.109 149.804,89.109 149.652 C 89.109 149.499,88.791 149.294,88.402 149.197 C 88.013 149.099,87.694 148.906,87.694 148.767 C 87.694 148.628,87.509 148.515,87.283 148.515 C 86.796 148.515,83.734 145.596,83.734 145.133 C 83.734 144.957,83.492 144.553,83.195 144.235 C 82.899 143.917,82.575 143.222,82.475 142.691 C 82.376 142.160,82.172 141.726,82.024 141.726 C 81.875 141.726,81.754 141.407,81.754 141.018 C 81.754 140.148,81.296 140.090,81.031 140.926 M209.618 150.071 C 209.618 158.557,209.673 159.830,210.042 159.830 C 210.411 159.830,210.467 158.604,210.467 150.495 L 210.467 141.160 217.818 141.160 L 225.169 141.160 225.244 150.401 C 225.301 157.488,225.401 159.669,225.672 159.760 C 225.950 159.852,226.025 157.795,226.025 150.094 L 226.025 140.311 217.822 140.311 L 209.618 140.311 209.618 150.071 M119.566 141.348 C 119.184 141.731,119.369 143.140,119.802 143.140 C 120.098 143.140,120.226 142.841,120.226 142.150 C 120.226 141.214,119.989 140.926,119.566 141.348 M109.658 141.922 C 109.558 142.021,109.477 142.336,109.477 142.621 C 109.477 142.907,109.349 143.140,109.194 143.140 C 109.038 143.140,108.911 143.325,108.911 143.551 C 108.911 143.778,108.593 144.281,108.204 144.670 C 107.815 145.059,107.496 145.456,107.496 145.552 C 107.496 145.648,107.317 145.906,107.097 146.125 C 106.878 146.345,106.655 146.622,106.602 146.742 C 106.450 147.087,103.893 149.081,103.602 149.081 C 103.208 149.081,102.122 150.091,102.122 150.458 C 102.122 150.634,102.313 150.778,102.546 150.778 C 102.779 150.778,102.970 150.587,102.970 150.354 C 102.970 150.090,103.237 149.929,103.678 149.929 C 104.066 149.929,104.385 149.802,104.385 149.646 C 104.385 149.491,104.558 149.364,104.769 149.364 C 104.981 149.364,105.393 149.045,105.685 148.656 C 105.977 148.267,106.322 147.949,106.452 147.949 C 106.780 147.949,107.496 147.201,107.496 146.858 C 107.496 146.702,107.942 146.103,108.487 145.525 C 109.042 144.936,109.477 144.182,109.477 143.808 C 109.477 143.403,109.644 143.140,109.901 143.140 C 110.134 143.140,110.325 142.893,110.325 142.591 C 110.325 142.001,109.952 141.627,109.658 141.922 M370.580 141.973 C 370.580 142.463,373.926 142.792,374.942 142.403 C 376.001 141.996,375.220 141.726,372.984 141.726 C 371.662 141.726,370.580 141.837,370.580 141.973 M71.853 143.423 C 71.853 144.045,71.980 144.554,72.136 144.554 C 72.291 144.554,72.419 144.045,72.419 143.423 C 72.419 142.801,72.291 142.291,72.136 142.291 C 71.980 142.291,71.853 142.801,71.853 143.423 M364.545 142.480 C 364.105 142.920,364.335 159.830,364.781 159.830 C 365.149 159.830,365.205 158.667,365.205 151.061 C 365.205 143.055,365.117 141.908,364.545 142.480 M118.812 144.413 C 118.812 144.891,118.942 145.124,119.165 145.050 C 119.360 144.985,119.519 144.698,119.519 144.413 C 119.519 144.128,119.360 143.841,119.165 143.777 C 118.942 143.702,118.812 143.935,118.812 144.413 M143.140 146.518 C 143.140 148.724,143.477 149.689,143.811 148.441 C 144.033 147.615,144.036 145.291,143.817 144.719 C 143.418 143.680,143.140 144.420,143.140 146.518 M165.335 145.507 C 165.103 146.744,165.255 147.733,165.700 147.880 C 165.957 147.964,166.054 147.526,166.054 146.275 C 166.054 144.418,165.625 143.960,165.335 145.507 M72.419 145.380 C 72.419 145.993,73.297 147.662,73.621 147.664 C 73.738 147.665,73.833 147.984,73.833 148.373 C 73.833 148.762,73.960 149.081,74.116 149.081 C 74.272 149.081,74.399 149.217,74.399 149.384 C 74.399 149.550,74.558 149.864,74.752 150.081 C 75.521 150.938,75.813 151.327,75.813 151.493 C 75.813 151.781,76.600 152.475,76.925 152.475 C 77.091 152.475,77.228 152.793,77.228 153.182 C 77.228 153.701,77.379 153.890,77.793 153.890 C 78.105 153.890,78.359 154.017,78.359 154.173 C 78.359 154.328,78.535 154.455,78.751 154.455 C 78.966 154.455,79.208 154.709,79.290 155.020 C 79.371 155.330,79.672 155.671,79.959 155.778 C 80.246 155.885,80.740 156.267,81.056 156.628 C 81.372 156.989,81.849 157.284,82.117 157.284 C 82.384 157.284,82.603 157.412,82.603 157.567 C 82.603 157.723,82.844 157.850,83.138 157.850 C 83.433 157.850,83.747 158.041,83.836 158.274 C 83.926 158.508,84.250 158.699,84.557 158.699 C 84.864 158.699,85.194 158.826,85.290 158.982 C 85.571 159.437,86.846 159.321,86.846 158.840 C 86.846 158.557,86.563 158.416,85.997 158.416 C 85.530 158.416,85.149 158.289,85.149 158.133 C 85.149 157.977,84.894 157.850,84.583 157.850 C 84.272 157.850,84.017 157.737,84.017 157.598 C 84.017 157.459,83.699 157.266,83.310 157.168 C 82.921 157.071,82.603 156.866,82.603 156.713 C 82.603 156.561,82.402 156.436,82.156 156.436 C 81.910 156.436,81.226 155.958,80.636 155.375 C 80.045 154.791,79.036 153.871,78.395 153.330 C 77.753 152.789,77.228 152.215,77.228 152.054 C 77.228 151.893,76.909 151.522,76.521 151.230 C 76.132 150.938,75.813 150.543,75.813 150.353 C 75.813 150.162,75.493 149.686,75.102 149.295 C 74.660 148.853,74.457 148.410,74.566 148.125 C 74.684 147.819,74.591 147.666,74.288 147.666 C 73.991 147.666,73.833 147.420,73.833 146.959 C 73.833 146.570,73.706 146.252,73.550 146.252 C 73.395 146.252,73.267 145.934,73.267 145.545 C 73.267 145.105,73.107 144.837,72.843 144.837 C 72.610 144.837,72.419 145.082,72.419 145.380 M117.963 146.393 C 117.963 146.833,118.124 147.100,118.388 147.100 C 118.652 147.100,118.812 146.833,118.812 146.393 C 118.812 145.953,118.652 145.686,118.388 145.686 C 118.124 145.686,117.963 145.953,117.963 146.393 M153.222 147.297 C 152.858 147.661,153.042 148.798,153.465 148.798 C 153.699 148.798,153.890 148.936,153.890 149.104 C 153.890 149.681,155.871 151.344,156.559 151.344 C 156.932 151.344,157.280 151.458,157.331 151.599 C 157.412 151.817,159.818 152.051,160.891 151.945 C 162.166 151.818,160.906 151.344,159.295 151.344 C 157.822 151.344,157.305 151.240,157.182 150.919 C 157.092 150.686,156.809 150.495,156.553 150.495 C 155.961 150.495,153.890 148.444,153.890 147.858 C 153.890 147.357,153.494 147.025,153.222 147.297 M174.642 147.527 C 174.552 147.761,174.562 148.398,174.663 148.941 C 174.810 149.724,174.758 149.929,174.412 149.929 C 174.115 149.929,173.975 150.201,173.975 150.778 C 173.975 151.245,173.847 151.627,173.692 151.627 C 173.536 151.627,173.409 151.866,173.409 152.158 C 173.409 152.450,173.218 152.847,172.984 153.041 C 172.751 153.235,172.560 153.551,172.560 153.744 C 172.560 154.254,168.974 157.850,168.465 157.850 C 167.912 157.850,167.904 158.384,168.455 158.595 C 168.943 158.783,173.409 154.406,173.409 153.740 C 173.409 153.511,173.536 153.324,173.692 153.324 C 173.847 153.324,173.975 153.021,173.975 152.651 C 173.975 152.281,174.165 151.820,174.399 151.627 C 174.632 151.433,174.823 150.979,174.823 150.619 C 174.823 150.258,174.950 149.884,175.106 149.788 C 175.481 149.556,175.472 147.100,175.097 147.100 C 174.937 147.100,174.732 147.292,174.642 147.527 M117.397 147.949 C 117.397 148.260,117.270 148.515,117.115 148.515 C 116.959 148.515,116.832 148.710,116.832 148.948 C 116.832 149.186,116.641 149.455,116.407 149.544 C 115.924 149.730,115.826 150.495,116.286 150.495 C 116.785 150.495,117.397 149.727,117.397 149.101 C 117.397 148.769,117.581 148.515,117.822 148.515 C 118.058 148.515,118.246 148.263,118.246 147.949 C 118.246 147.635,118.058 147.383,117.822 147.383 C 117.586 147.383,117.397 147.635,117.397 147.949 M164.639 148.412 C 164.639 148.666,164.305 149.184,163.896 149.563 C 163.395 150.028,163.245 150.346,163.438 150.538 C 163.630 150.731,164.012 150.543,164.606 149.962 C 165.534 149.054,165.786 147.949,165.064 147.949 C 164.830 147.949,164.639 148.157,164.639 148.412 M143.894 149.552 C 143.543 149.903,143.703 150.999,144.130 151.163 C 144.364 151.253,144.554 151.595,144.554 151.924 C 144.554 152.280,144.698 152.472,144.908 152.399 C 145.297 152.263,145.222 151.258,144.811 151.108 C 144.670 151.056,144.554 150.642,144.554 150.189 C 144.554 149.398,144.297 149.150,143.894 149.552 M90.523 150.919 C 90.523 151.216,90.822 151.344,91.513 151.344 C 92.205 151.344,92.504 151.216,92.504 150.919 C 92.504 150.623,92.205 150.495,91.513 150.495 C 90.822 150.495,90.523 150.623,90.523 150.919 M99.576 150.919 C 99.302 151.249,98.537 151.344,96.146 151.344 C 93.344 151.344,92.114 151.661,93.706 151.973 C 95.035 152.233,99.116 152.016,99.228 151.679 C 99.292 151.488,99.878 151.344,100.589 151.344 C 101.511 151.344,101.839 151.233,101.839 150.919 C 101.839 150.626,101.544 150.495,100.883 150.495 C 100.358 150.495,99.769 150.686,99.576 150.919 M115.417 150.847 C 115.417 151.298,111.037 155.870,110.605 155.870 C 110.451 155.870,110.325 155.997,110.325 156.153 C 110.325 156.653,111.319 156.454,111.740 155.870 C 111.964 155.559,112.310 155.304,112.509 155.304 C 112.708 155.304,112.871 155.171,112.871 155.008 C 112.871 154.624,114.172 153.324,114.556 153.324 C 114.718 153.324,114.851 153.180,114.851 153.003 C 114.851 152.827,115.094 152.472,115.391 152.215 C 116.046 151.647,116.255 150.741,115.771 150.572 C 115.576 150.504,115.417 150.627,115.417 150.847 M161.881 150.682 C 161.273 150.928,161.495 151.344,162.235 151.344 C 162.675 151.344,162.942 151.183,162.942 150.919 C 162.942 150.497,162.555 150.411,161.881 150.682 M269.488 150.919 C 269.345 151.291,270.351 151.344,277.519 151.344 L 285.714 151.344 285.719 155.092 C 285.723 158.698,285.970 160.198,286.382 159.124 C 286.791 158.057,286.577 151.912,286.106 151.192 L 285.649 150.495 277.650 150.495 C 270.800 150.495,269.627 150.556,269.488 150.919 M319.378 150.915 C 319.378 151.287,320.334 151.344,326.615 151.344 C 332.279 151.344,333.826 151.267,333.734 150.990 C 333.541 150.409,319.378 150.334,319.378 150.915 M145.120 153.324 C 145.120 153.635,145.239 153.890,145.384 153.890 C 145.529 153.890,145.726 154.135,145.821 154.434 C 146.111 155.348,148.682 157.850,149.331 157.850 C 149.660 157.850,149.929 157.986,149.929 158.153 C 149.929 158.647,150.695 159.264,151.307 159.264 C 151.620 159.264,151.955 159.392,152.051 159.547 C 152.311 159.969,153.679 159.904,153.535 159.477 C 153.468 159.278,153.085 159.163,152.663 159.214 C 152.128 159.279,151.909 159.176,151.909 158.860 C 151.909 158.604,151.669 158.416,151.344 158.416 C 151.033 158.416,150.778 158.289,150.778 158.133 C 150.778 157.977,150.587 157.850,150.354 157.850 C 150.120 157.850,149.929 157.723,149.929 157.567 C 149.929 157.412,149.734 157.284,149.496 157.284 C 149.258 157.284,148.990 157.093,148.900 156.860 C 148.810 156.627,148.560 156.436,148.343 156.436 C 148.126 156.436,147.949 156.299,147.949 156.133 C 147.949 155.966,147.767 155.648,147.545 155.425 C 147.323 155.203,147.004 155.021,146.838 155.021 C 146.671 155.021,146.535 154.856,146.535 154.653 C 146.535 154.004,145.839 152.763,145.474 152.760 C 145.279 152.759,145.120 153.013,145.120 153.324 M109.091 156.860 C 109.002 157.093,108.734 157.284,108.495 157.284 C 108.257 157.284,108.062 157.412,108.062 157.567 C 108.062 157.723,107.808 157.850,107.496 157.850 C 107.182 157.850,106.931 158.039,106.931 158.274 C 106.931 158.510,107.182 158.699,107.496 158.699 C 107.811 158.699,108.062 158.510,108.062 158.274 C 108.062 158.039,108.313 157.850,108.625 157.850 C 109.278 157.850,110.364 157.010,110.153 156.668 C 109.917 156.287,109.266 156.404,109.091 156.860 M105.233 158.840 C 105.233 159.104,105.501 159.264,105.941 159.264 C 106.381 159.264,106.648 159.104,106.648 158.840 C 106.648 158.576,106.381 158.416,105.941 158.416 C 105.501 158.416,105.233 158.576,105.233 158.840 M166.722 158.840 C 166.632 159.074,166.254 159.264,165.882 159.264 C 165.510 159.264,165.205 159.392,165.205 159.547 C 165.205 159.703,164.696 159.830,164.074 159.830 C 163.256 159.830,162.942 159.948,162.942 160.255 C 162.942 160.533,163.221 160.679,163.756 160.679 C 164.204 160.679,164.729 160.488,164.922 160.255 C 165.116 160.021,165.577 159.830,165.947 159.830 C 166.317 159.830,166.620 159.703,166.620 159.547 C 166.620 159.392,166.938 159.264,167.327 159.264 C 167.767 159.264,168.034 159.104,168.034 158.840 C 168.034 158.602,167.782 158.416,167.459 158.416 C 167.143 158.416,166.811 158.607,166.722 158.840 M87.129 159.547 C 87.129 159.703,87.511 159.830,87.977 159.830 C 88.444 159.830,88.826 159.703,88.826 159.547 C 88.826 159.392,88.444 159.264,87.977 159.264 C 87.511 159.264,87.129 159.392,87.129 159.547 M103.253 159.547 C 103.253 159.703,103.571 159.830,103.960 159.830 C 104.349 159.830,104.668 159.703,104.668 159.547 C 104.668 159.392,104.349 159.264,103.960 159.264 C 103.571 159.264,103.253 159.392,103.253 159.547 M89.178 160.184 C 89.360 160.738,91.372 160.818,91.372 160.272 C 91.372 159.944,91.075 159.830,90.217 159.830 C 89.419 159.830,89.098 159.940,89.178 160.184 M100.707 160.255 C 100.707 160.548,101.002 160.679,101.667 160.679 C 102.259 160.679,102.689 160.516,102.790 160.255 C 102.918 159.921,102.712 159.830,101.830 159.830 C 101.021 159.830,100.707 159.949,100.707 160.255 M153.890 160.255 C 153.890 160.537,154.173 160.679,154.738 160.679 C 155.304 160.679,155.587 160.537,155.587 160.255 C 155.587 159.972,155.304 159.830,154.738 159.830 C 154.173 159.830,153.890 159.972,153.890 160.255 M93.140 160.596 C 91.400 160.931,92.870 161.245,96.181 161.245 C 99.749 161.245,100.962 160.935,98.798 160.578 C 97.646 160.387,94.165 160.398,93.140 160.596 M156.789 160.596 C 156.439 160.663,156.153 160.837,156.153 160.981 C 156.153 161.317,162.290 161.331,162.496 160.996 C 162.806 160.495,158.778 160.213,156.789 160.596 " stroke="none" fill="#5d5d5d" fill-rule="evenodd"></path><path id="path1" d="M91.808 112.801 C 91.725 113.017,91.134 113.154,90.284 113.154 C 89.367 113.154,88.770 113.305,88.527 113.598 C 88.324 113.842,87.935 113.984,87.662 113.912 C 87.389 113.841,87.097 113.959,87.014 114.176 C 86.931 114.392,86.667 114.569,86.427 114.569 C 86.186 114.569,85.768 114.678,85.498 114.811 C 83.888 115.606,82.962 116.156,82.478 116.605 C 82.177 116.885,81.792 117.115,81.624 117.115 C 80.720 117.115,74.965 123.656,74.965 124.683 C 74.965 124.839,74.774 125.125,74.540 125.318 C 74.307 125.512,74.116 125.909,74.116 126.202 C 74.116 126.494,73.989 126.733,73.833 126.733 C 73.678 126.733,73.550 126.991,73.550 127.307 C 73.550 127.623,73.359 127.955,73.126 128.045 C 72.837 128.156,72.702 128.608,72.702 129.459 C 72.702 130.199,72.557 130.766,72.348 130.847 C 71.866 131.032,71.896 141.504,72.379 141.665 C 72.556 141.724,72.702 142.174,72.702 142.664 C 72.702 143.427,73.572 145.659,74.432 147.100 C 74.571 147.334,74.770 147.716,74.874 147.949 C 75.827 150.098,80.738 155.587,81.707 155.587 C 81.834 155.587,82.237 155.905,82.603 156.294 C 82.968 156.683,83.499 157.001,83.783 157.001 C 84.067 157.001,84.300 157.129,84.300 157.284 C 84.300 157.440,84.558 157.567,84.875 157.567 C 85.191 157.567,85.524 157.762,85.615 158.000 C 85.712 158.251,85.981 158.369,86.258 158.282 C 86.520 158.198,86.982 158.318,87.285 158.547 C 87.588 158.776,88.186 158.968,88.614 158.973 C 89.042 158.978,89.392 159.109,89.392 159.264 C 89.392 159.420,89.827 159.547,90.359 159.547 C 91.549 159.547,92.221 159.788,92.220 160.214 C 92.220 160.752,99.475 160.537,100.028 159.984 C 100.271 159.741,100.950 159.547,101.559 159.547 C 102.161 159.547,102.733 159.420,102.829 159.264 C 102.925 159.109,103.324 158.982,103.714 158.982 C 104.105 158.982,104.623 158.783,104.866 158.541 C 105.108 158.299,105.477 158.166,105.685 158.246 C 105.893 158.326,106.134 158.277,106.220 158.139 C 106.391 157.862,108.017 157.001,108.368 157.001 C 108.489 157.001,109.060 156.556,109.638 156.011 C 110.215 155.467,110.816 155.021,110.972 155.021 C 111.360 155.021,114.555 151.847,114.563 151.454 C 114.566 151.281,115.014 150.668,115.559 150.090 C 116.103 149.513,116.549 148.942,116.549 148.821 C 116.549 148.458,117.413 146.841,117.703 146.662 C 117.851 146.571,117.896 146.371,117.802 146.220 C 117.708 146.068,117.833 145.636,118.080 145.259 C 118.327 144.883,118.529 144.323,118.529 144.015 C 118.529 143.708,118.656 143.378,118.812 143.281 C 118.967 143.185,119.095 142.621,119.095 142.026 C 119.095 141.411,119.277 140.795,119.519 140.594 C 119.857 140.313,119.943 139.480,119.943 136.492 C 119.943 133.504,119.857 132.671,119.519 132.390 C 119.277 132.190,119.095 131.573,119.095 130.958 C 119.095 130.364,118.967 129.799,118.812 129.703 C 118.656 129.607,118.525 129.249,118.520 128.908 C 118.515 128.567,118.324 128.041,118.094 127.738 C 117.865 127.435,117.746 126.972,117.829 126.710 C 117.917 126.434,117.798 126.164,117.547 126.068 C 117.309 125.977,117.115 125.643,117.115 125.327 C 117.115 125.011,116.987 124.752,116.832 124.752 C 116.676 124.752,116.548 124.530,116.546 124.257 C 116.545 123.985,116.099 123.294,115.556 122.720 C 115.013 122.147,114.569 121.538,114.569 121.366 C 114.569 120.935,112.340 118.809,110.543 117.525 C 109.723 116.940,109.010 116.354,108.958 116.222 C 108.906 116.091,108.633 115.983,108.352 115.983 C 108.070 115.983,107.767 115.792,107.677 115.559 C 107.587 115.325,107.339 115.134,107.124 115.134 C 106.589 115.134,104.950 114.296,104.950 114.021 C 104.950 113.899,104.656 113.855,104.297 113.923 C 103.916 113.996,103.488 113.862,103.272 113.601 C 103.037 113.317,102.446 113.154,101.654 113.154 C 100.917 113.154,100.351 113.009,100.271 112.801 C 100.171 112.540,99.055 112.447,96.040 112.447 C 93.024 112.447,91.908 112.540,91.808 112.801 M364.144 113.083 L 356.436 113.163 356.436 136.497 L 356.436 159.830 360.396 159.830 L 364.356 159.830 364.356 150.936 C 364.356 145.275,364.460 141.978,364.641 141.866 C 364.798 141.769,367.246 141.614,370.082 141.520 C 373.926 141.394,375.339 141.251,375.632 140.958 C 375.879 140.710,376.313 140.628,376.803 140.735 C 377.358 140.857,377.628 140.781,377.749 140.467 C 377.841 140.226,378.176 140.028,378.492 140.028 C 378.808 140.028,379.066 139.901,379.066 139.745 C 379.066 139.590,379.243 139.463,379.459 139.463 C 380.012 139.463,383.027 136.483,383.027 135.936 C 383.027 135.688,383.218 135.411,383.451 135.322 C 383.685 135.232,383.876 134.862,383.876 134.498 C 383.876 134.135,384.003 133.760,384.158 133.663 C 384.314 133.567,384.441 133.166,384.441 132.772 C 384.441 132.300,384.629 132.005,384.989 131.911 C 385.413 131.800,385.488 131.630,385.319 131.160 C 385.200 130.825,385.128 128.931,385.159 126.949 C 385.204 124.187,385.127 123.272,384.829 123.025 C 384.616 122.848,384.443 122.496,384.446 122.243 C 384.462 120.515,380.497 115.652,378.761 115.271 C 378.307 115.171,377.935 114.972,377.935 114.829 C 377.935 114.686,377.613 114.569,377.219 114.569 C 376.825 114.569,376.435 114.391,376.351 114.174 C 376.244 113.893,375.887 113.821,375.120 113.924 C 374.273 114.037,373.911 113.940,373.442 113.470 C 373.112 113.141,372.620 112.901,372.348 112.937 C 372.076 112.974,368.384 113.039,364.144 113.083 M13.473 113.379 C 13.391 113.511,13.509 113.975,13.734 114.409 C 13.960 114.844,14.144 115.360,14.144 115.556 C 14.144 115.753,14.314 116.055,14.522 116.227 C 14.853 116.502,15.736 118.119,16.243 119.378 C 16.337 119.611,16.657 120.184,16.956 120.651 C 17.254 121.117,17.507 121.722,17.518 121.994 C 17.530 122.267,17.666 122.489,17.822 122.489 C 17.977 122.489,18.105 122.748,18.105 123.064 C 18.105 123.380,18.296 123.712,18.529 123.802 C 18.762 123.891,18.953 124.205,18.953 124.500 C 18.953 124.794,19.081 125.035,19.236 125.035 C 19.392 125.035,19.519 125.354,19.519 125.743 C 19.519 126.132,19.637 126.450,19.781 126.450 C 19.925 126.450,20.396 127.182,20.827 128.076 C 21.257 128.971,21.903 130.178,22.262 130.758 C 22.620 131.339,22.914 131.993,22.914 132.213 C 22.914 132.433,23.113 132.689,23.356 132.782 C 23.599 132.876,23.714 133.088,23.611 133.255 C 23.508 133.421,23.596 133.772,23.805 134.035 C 24.424 134.809,24.894 135.746,24.894 136.205 C 24.894 136.441,25.019 136.634,25.171 136.634 C 25.324 136.634,25.529 136.952,25.626 137.341 C 25.724 137.730,25.917 138.048,26.056 138.048 C 26.195 138.048,26.308 138.248,26.308 138.493 C 26.308 138.737,26.507 139.135,26.749 139.378 C 26.991 139.620,27.123 139.993,27.041 140.206 C 26.959 140.420,27.006 140.594,27.145 140.594 C 28.103 140.594,28.289 142.296,28.289 151.104 L 28.289 159.830 32.249 159.830 L 36.209 159.830 36.209 151.052 C 36.209 143.510,36.269 142.251,36.634 142.111 C 36.867 142.021,37.058 141.732,37.058 141.468 C 37.058 140.823,38.456 138.048,38.781 138.048 C 38.922 138.048,39.038 137.730,39.038 137.341 C 39.038 136.952,39.165 136.634,39.321 136.634 C 39.477 136.634,39.604 136.375,39.604 136.059 C 39.604 135.743,39.795 135.411,40.028 135.322 C 40.262 135.232,40.453 134.918,40.453 134.623 C 40.453 134.329,40.580 134.088,40.736 134.088 C 40.891 134.088,41.018 133.849,41.018 133.557 C 41.018 133.264,41.209 132.867,41.443 132.673 C 41.676 132.480,41.867 132.082,41.867 131.790 C 41.867 131.498,41.994 131.259,42.150 131.259 C 42.306 131.259,42.433 131.068,42.433 130.835 C 42.433 130.601,42.560 130.410,42.716 130.410 C 42.871 130.410,42.999 130.230,42.999 130.009 C 42.999 129.537,43.893 127.765,44.201 127.628 C 44.318 127.577,44.413 127.270,44.413 126.948 C 44.413 126.626,44.731 125.945,45.120 125.435 C 45.509 124.925,45.827 124.372,45.827 124.206 C 45.827 124.040,45.955 123.904,46.110 123.904 C 46.266 123.904,46.393 123.669,46.393 123.382 C 46.393 122.703,47.207 121.075,47.545 121.075 C 47.690 121.075,47.808 120.820,47.808 120.509 C 47.808 120.198,47.935 119.943,48.091 119.943 C 48.246 119.943,48.373 119.696,48.373 119.394 C 48.373 119.092,48.493 118.772,48.638 118.682 C 48.989 118.465,49.788 116.848,49.788 116.355 C 49.788 116.141,49.979 115.892,50.212 115.802 C 50.446 115.713,50.636 115.424,50.636 115.161 C 50.636 114.897,50.781 114.538,50.957 114.361 C 51.133 114.185,51.201 113.841,51.107 113.598 C 50.836 112.891,42.767 112.940,42.540 113.649 C 41.914 115.606,40.263 118.812,39.880 118.812 C 39.738 118.812,39.686 118.981,39.766 119.187 C 39.845 119.393,39.268 120.818,38.484 122.354 C 37.700 123.889,37.058 125.312,37.058 125.515 C 37.058 125.718,36.931 125.884,36.775 125.884 C 36.620 125.884,36.492 126.206,36.492 126.600 C 36.492 126.994,36.301 127.389,36.068 127.479 C 35.835 127.569,35.644 127.815,35.644 128.027 C 35.644 128.239,35.389 128.866,35.078 129.420 C 34.767 129.974,34.512 130.618,34.512 130.852 C 34.512 131.086,34.321 131.350,34.088 131.439 C 33.854 131.529,33.663 131.907,33.663 132.279 C 33.663 132.652,33.536 132.956,33.380 132.956 C 33.225 132.956,33.098 133.197,33.098 133.492 C 33.098 133.982,32.588 134.371,31.943 134.371 C 31.800 134.371,31.683 134.107,31.683 133.785 C 31.683 133.462,31.485 133.000,31.243 132.758 C 31.000 132.516,30.869 132.143,30.951 131.930 C 31.033 131.716,30.986 131.542,30.846 131.542 C 30.515 131.542,29.703 129.904,29.703 129.235 C 29.703 128.948,29.582 128.713,29.433 128.713 C 29.285 128.713,28.982 128.299,28.760 127.793 C 27.595 125.144,27.403 124.763,27.149 124.606 C 26.998 124.513,26.874 124.189,26.874 123.887 C 26.874 123.585,26.747 123.338,26.591 123.338 C 26.436 123.338,26.308 123.030,26.308 122.654 C 26.308 122.278,26.200 121.928,26.068 121.876 C 25.850 121.791,24.722 119.527,23.731 117.185 C 23.517 116.680,23.245 116.266,23.128 116.266 C 23.010 116.266,22.914 115.963,22.914 115.593 C 22.914 115.223,22.721 114.761,22.486 114.566 C 22.250 114.370,22.091 114.004,22.132 113.753 C 22.215 113.246,13.780 112.882,13.473 113.379 M144.216 113.366 C 143.928 114.472,144.186 148.812,144.484 148.927 C 144.678 149.002,144.837 149.449,144.837 149.920 C 144.837 150.392,144.965 150.778,145.120 150.778 C 145.276 150.778,145.403 151.096,145.403 151.485 C 145.403 151.874,145.524 152.192,145.673 152.192 C 145.821 152.192,146.139 152.606,146.380 153.112 C 146.620 153.617,147.135 154.401,147.524 154.853 C 147.914 155.305,148.232 155.762,148.232 155.869 C 148.232 155.976,148.678 156.304,149.222 156.597 C 149.767 156.890,150.212 157.219,150.212 157.328 C 150.212 157.437,150.721 157.751,151.344 158.025 C 151.966 158.300,152.475 158.628,152.475 158.753 C 152.475 158.879,152.786 158.982,153.166 158.982 C 153.546 158.982,153.935 159.109,154.031 159.264 C 154.127 159.420,154.506 159.547,154.873 159.547 C 155.785 159.547,156.436 159.825,156.435 160.214 C 156.434 160.725,162.168 160.475,162.461 159.951 C 162.588 159.725,163.109 159.547,163.647 159.547 C 164.174 159.547,164.685 159.420,164.781 159.264 C 164.877 159.109,165.187 158.982,165.470 158.982 C 165.753 158.982,166.143 158.791,166.337 158.557 C 166.530 158.324,166.928 158.133,167.220 158.133 C 167.512 158.133,167.751 158.006,167.751 157.850 C 167.751 157.694,167.959 157.567,168.212 157.567 C 168.696 157.567,171.711 154.699,171.711 154.239 C 171.711 154.092,172.030 153.629,172.419 153.209 C 172.808 152.789,173.126 152.198,173.126 151.895 C 173.126 151.592,173.253 151.344,173.409 151.344 C 173.564 151.344,173.692 150.958,173.692 150.486 C 173.692 149.967,173.867 149.561,174.137 149.458 C 174.447 149.339,174.530 149.079,174.410 148.601 C 174.182 147.692,174.519 145.969,174.925 145.969 C 175.239 145.969,175.278 114.393,174.966 113.508 C 174.830 113.124,168.637 112.991,166.917 113.335 L 166.012 113.516 166.104 130.874 C 166.154 140.421,166.100 148.232,165.983 148.232 C 165.866 148.232,165.771 148.476,165.771 148.774 C 165.771 149.590,163.249 151.697,162.454 151.545 C 162.039 151.466,161.810 151.559,161.810 151.807 C 161.810 152.273,157.144 152.370,156.860 151.909 C 156.764 151.754,156.503 151.627,156.281 151.627 C 155.078 151.627,152.526 148.962,152.870 148.065 C 152.959 147.834,152.843 147.572,152.612 147.484 C 152.248 147.344,152.192 145.077,152.192 130.238 L 152.192 113.154 148.232 113.154 C 146.054 113.154,144.247 113.250,144.216 113.366 M201.603 113.343 C 201.499 113.446,201.414 123.949,201.414 136.681 L 201.414 159.830 205.375 159.830 L 209.335 159.830 209.335 150.087 C 209.335 144.729,209.431 140.305,209.547 140.257 C 209.664 140.209,213.451 140.205,217.963 140.248 L 226.167 140.327 226.089 150.079 L 226.011 159.830 230.120 159.830 L 234.229 159.830 234.229 136.484 L 234.229 113.139 230.198 113.217 L 226.167 113.296 226.167 122.706 L 226.167 132.116 217.822 132.041 L 209.477 131.966 209.402 122.560 L 209.328 113.154 205.560 113.154 C 203.487 113.154,201.707 113.239,201.603 113.343 M260.537 136.492 L 260.537 159.830 273.197 159.831 L 285.856 159.831 285.770 155.729 L 285.685 151.627 277.553 151.627 C 271.605 151.627,269.329 151.535,269.081 151.287 C 268.646 150.852,268.605 141.378,269.034 140.575 C 269.313 140.055,269.704 140.028,277.105 140.028 L 284.883 140.028 284.803 136.421 L 284.724 132.815 277.086 132.742 C 267.794 132.653,268.741 133.357,268.741 126.537 L 268.741 121.358 277.228 121.358 L 285.714 121.358 285.714 117.256 L 285.714 113.154 273.126 113.154 L 260.537 113.154 260.537 136.492 M310.042 136.536 L 310.042 159.830 321.924 159.830 L 333.805 159.830 333.805 155.733 L 333.805 151.636 326.379 151.561 L 318.953 151.485 318.812 132.390 L 318.670 113.296 314.356 113.269 L 310.042 113.242 310.042 136.536 M319.511 131.966 C 319.511 142.235,319.547 146.395,319.590 141.210 C 319.633 136.025,319.633 127.624,319.590 122.540 C 319.546 117.455,319.511 121.697,319.511 131.966 M100.404 121.042 C 100.536 121.256,100.791 121.339,100.971 121.228 C 101.151 121.117,101.606 121.228,101.983 121.475 C 102.359 121.722,102.814 121.924,102.993 121.924 C 103.912 121.924,108.170 125.647,108.897 127.086 C 109.113 127.514,109.395 127.864,109.524 127.864 C 109.654 127.864,109.760 128.169,109.760 128.541 C 109.760 128.913,109.919 129.279,110.113 129.354 C 110.715 129.586,111.248 131.955,111.039 133.473 C 110.885 134.593,110.934 134.892,111.294 135.030 C 111.895 135.261,111.923 137.712,111.328 137.941 C 111.004 138.065,110.952 138.470,111.080 139.848 C 111.210 141.234,111.152 141.675,110.801 141.966 C 110.558 142.167,110.421 142.494,110.496 142.691 C 110.572 142.888,110.437 143.213,110.197 143.412 C 109.956 143.612,109.760 143.956,109.760 144.177 C 109.760 145.331,105.805 149.513,103.882 150.391 C 103.303 150.656,102.612 151.057,102.346 151.282 C 102.051 151.533,101.479 151.646,100.869 151.575 C 100.226 151.500,99.825 151.588,99.734 151.826 C 99.525 152.371,92.625 152.350,92.415 151.803 C 92.321 151.559,92.000 151.464,91.556 151.549 C 90.826 151.689,88.543 150.849,88.543 150.441 C 88.543 150.315,88.350 150.212,88.115 150.212 C 87.206 150.212,82.885 146.486,82.885 145.703 C 82.885 145.524,82.567 145.035,82.178 144.616 C 81.779 144.185,81.471 143.513,81.471 143.072 C 81.471 142.643,81.344 142.291,81.188 142.291 C 81.033 142.291,80.905 141.920,80.905 141.466 C 80.905 141.012,80.752 140.590,80.565 140.528 C 80.052 140.357,80.018 132.492,80.528 132.068 C 80.736 131.896,80.905 131.451,80.905 131.079 C 80.905 130.707,81.018 130.181,81.157 129.911 C 81.295 129.641,81.645 128.917,81.935 128.302 C 82.861 126.334,87.670 121.924,88.890 121.924 C 89.032 121.924,89.335 121.738,89.562 121.511 C 89.788 121.285,90.141 121.163,90.345 121.241 C 90.549 121.320,90.852 121.219,91.020 121.017 C 91.471 120.474,100.067 120.497,100.404 121.042 M373.055 121.570 C 373.120 121.764,373.449 121.928,373.786 121.933 C 374.468 121.944,375.672 122.830,375.672 123.322 C 375.672 123.496,375.863 123.712,376.096 123.802 C 376.330 123.891,376.521 124.205,376.521 124.500 C 376.521 124.794,376.648 125.035,376.803 125.035 C 377.225 125.035,377.154 129.366,376.719 130.205 C 376.073 131.450,374.979 132.668,374.504 132.671 C 374.251 132.672,373.874 132.877,373.667 133.127 C 373.296 133.574,371.958 133.566,370.829 133.109 C 370.512 132.981,370.324 133.107,370.216 133.516 C 370.071 134.074,369.899 134.104,367.280 134.028 L 364.498 133.946 364.421 127.871 C 364.379 124.530,364.395 121.666,364.457 121.506 C 364.631 121.058,372.905 121.119,373.055 121.570 M365.842 142.494 C 366.269 142.559,366.970 142.559,367.397 142.494 C 367.825 142.429,367.475 142.376,366.620 142.376 C 365.764 142.376,365.414 142.429,365.842 142.494 " stroke="none" fill="#040404" fill-rule="evenodd"></path><path id="path2" d="M15.925 113.082 C 17.138 113.135,19.048 113.135,20.169 113.081 C 21.289 113.028,20.297 112.984,17.963 112.984 C 15.629 112.985,14.712 113.029,15.925 113.082 M44.780 113.082 C 45.992 113.135,47.902 113.135,49.023 113.081 C 50.144 113.028,49.151 112.984,46.818 112.984 C 44.484 112.985,43.567 113.029,44.780 113.082 M146.027 113.081 C 147.071 113.135,148.853 113.135,149.988 113.082 C 151.122 113.028,150.269 112.983,148.091 112.983 C 145.912 112.982,144.984 113.027,146.027 113.081 M168.941 113.081 C 169.984 113.135,171.767 113.135,172.901 113.082 C 174.036 113.028,173.182 112.983,171.004 112.983 C 168.826 112.982,167.898 113.027,168.941 113.081 M203.465 113.081 C 204.516 113.135,206.234 113.135,207.284 113.081 C 208.335 113.027,207.475 112.982,205.375 112.982 C 203.274 112.982,202.415 113.027,203.465 113.081 M228.064 113.081 C 229.107 113.135,230.890 113.135,232.024 113.082 C 233.159 113.028,232.306 112.983,230.127 112.983 C 227.949 112.982,227.021 113.027,228.064 113.081 M266.973 113.083 C 270.435 113.128,276.100 113.128,279.562 113.083 C 283.023 113.038,280.191 113.001,273.267 113.001 C 266.344 113.001,263.511 113.038,266.973 113.083 M313.083 113.081 C 314.056 113.136,315.647 113.136,316.620 113.081 C 317.592 113.025,316.796 112.980,314.851 112.980 C 312.907 112.980,312.111 113.025,313.083 113.081 M359.917 113.083 C 361.910 113.131,365.093 113.131,366.990 113.082 C 368.886 113.034,367.256 112.994,363.366 112.994 C 359.477 112.994,357.925 113.034,359.917 113.083 M143.494 113.342 C 143.217 113.453,143.140 116.803,143.140 128.757 C 143.140 140.597,143.219 144.109,143.494 144.383 C 143.777 144.666,143.847 141.579,143.847 128.946 C 143.847 120.261,143.847 113.165,143.847 113.177 C 143.847 113.189,143.688 113.263,143.494 113.342 M234.647 136.634 C 234.647 149.470,234.682 154.721,234.724 148.303 C 234.766 141.885,234.766 131.383,234.724 124.965 C 234.682 118.547,234.647 123.798,234.647 136.634 M200.408 122.207 C 200.408 126.952,200.447 128.893,200.494 126.521 C 200.542 124.148,200.542 120.265,200.494 117.893 C 200.447 115.520,200.408 117.461,200.408 122.207 M27.928 125.382 C 28.084 125.581,28.283 125.934,28.370 126.167 C 28.477 126.457,28.534 126.399,28.549 125.985 C 28.561 125.652,28.362 125.299,28.107 125.201 C 27.760 125.067,27.715 125.113,27.928 125.382 M385.317 125.318 C 385.291 125.918,385.782 126.618,386.044 126.355 C 386.165 126.235,386.127 126.048,385.961 125.939 C 385.794 125.831,385.585 125.552,385.496 125.318 C 385.353 124.941,385.333 124.941,385.317 125.318 M35.467 127.431 C 35.379 127.659,35.373 128.009,35.453 128.208 C 35.533 128.408,35.609 128.296,35.621 127.959 C 35.634 127.621,35.803 127.281,35.997 127.203 C 36.274 127.091,36.272 127.055,35.988 127.038 C 35.789 127.026,35.554 127.202,35.467 127.431 M385.453 128.867 C 385.348 129.286,385.332 129.698,385.418 129.783 C 385.503 129.869,385.573 129.737,385.573 129.491 C 385.573 129.244,385.732 128.985,385.926 128.913 C 386.189 128.817,386.198 128.696,385.962 128.445 C 385.721 128.187,385.599 128.288,385.453 128.867 M42.192 131.447 C 41.739 131.939,41.866 132.175,42.405 131.842 C 42.614 131.713,42.737 131.478,42.679 131.319 C 42.619 131.153,42.413 131.207,42.192 131.447 M366.973 133.166 C 368.023 133.220,368.883 133.386,368.883 133.535 C 368.883 133.683,369.010 133.805,369.165 133.805 C 369.321 133.805,369.448 133.614,369.448 133.380 C 369.448 133.035,369.041 132.966,367.256 133.012 L 365.064 133.067 366.973 133.166 M71.004 134.795 C 71.004 135.028,71.195 135.219,71.429 135.219 C 71.662 135.219,71.853 135.028,71.853 134.795 C 71.853 134.562,71.662 134.371,71.429 134.371 C 71.195 134.371,71.004 134.562,71.004 134.795 M24.633 136.533 C 24.621 136.866,24.820 137.219,25.075 137.317 C 25.423 137.450,25.468 137.405,25.255 137.135 C 25.098 136.937,24.899 136.584,24.813 136.351 C 24.706 136.061,24.649 136.119,24.633 136.533 M71.004 137.907 C 71.004 138.140,71.195 138.331,71.429 138.331 C 71.662 138.331,71.853 138.140,71.853 137.907 C 71.853 137.673,71.662 137.482,71.429 137.482 C 71.195 137.482,71.004 137.673,71.004 137.907 M200.392 143.423 C 200.392 145.368,200.437 146.163,200.492 145.191 C 200.548 144.219,200.548 142.627,200.492 141.655 C 200.437 140.682,200.392 141.478,200.392 143.423 M372.493 141.643 C 372.845 141.710,373.354 141.708,373.624 141.637 C 373.895 141.566,373.607 141.511,372.984 141.514 C 372.362 141.517,372.141 141.575,372.493 141.643 M369.731 142.150 C 369.731 142.459,370.021 142.564,370.792 142.536 C 371.449 142.512,371.610 142.451,371.216 142.375 C 370.866 142.307,370.580 142.134,370.580 141.989 C 370.580 141.844,370.389 141.726,370.156 141.726 C 369.922 141.726,369.731 141.917,369.731 142.150 M28.130 150.071 C 28.130 154.427,28.169 156.170,28.217 153.943 C 28.265 151.717,28.265 148.152,28.217 146.022 C 28.169 143.893,28.130 145.714,28.130 150.071 M152.258 145.686 C 152.258 146.231,152.316 146.453,152.387 146.181 C 152.459 145.909,152.459 145.463,152.387 145.191 C 152.316 144.919,152.258 145.141,152.258 145.686 M95.545 152.109 C 95.895 152.177,96.467 152.177,96.818 152.109 C 97.168 152.042,96.881 151.987,96.181 151.987 C 95.481 151.987,95.194 152.042,95.545 152.109 M158.208 152.112 C 158.638 152.177,159.274 152.176,159.622 152.109 C 159.970 152.041,159.618 151.988,158.840 151.990 C 158.062 151.993,157.778 152.047,158.208 152.112 M200.392 155.587 C 200.392 157.532,200.437 158.327,200.492 157.355 C 200.548 156.383,200.548 154.791,200.492 153.819 C 200.437 152.847,200.392 153.642,200.392 155.587 " stroke="none" fill="#444444" fill-rule="evenodd"></path><path id="path3" d="M143.837 128.147 C 143.837 136.315,143.874 139.657,143.918 135.573 C 143.962 131.489,143.962 124.806,143.918 120.721 C 143.874 116.637,143.837 119.979,143.837 128.147 M213.949 132.036 C 216.254 132.084,219.945 132.084,222.153 132.036 C 224.361 131.988,222.475 131.949,217.963 131.949 C 213.451 131.950,211.645 131.989,213.949 132.036 M272.646 132.602 C 274.249 132.652,276.795 132.652,278.304 132.601 C 279.812 132.550,278.501 132.509,275.389 132.509 C 272.277 132.509,271.043 132.551,272.646 132.602 M282.677 132.593 C 283.107 132.658,283.744 132.657,284.092 132.590 C 284.440 132.522,284.088 132.469,283.310 132.471 C 282.532 132.473,282.247 132.528,282.677 132.593 M284.975 136.351 C 284.975 138.296,285.020 139.091,285.075 138.119 C 285.130 137.146,285.130 135.555,285.075 134.583 C 285.020 133.610,284.975 134.406,284.975 136.351 M368.761 141.976 C 368.676 142.114,368.859 142.293,369.169 142.374 C 369.533 142.470,369.731 142.381,369.731 142.123 C 369.731 141.686,369.008 141.577,368.761 141.976 M273.638 151.555 C 275.943 151.603,279.634 151.603,281.842 151.555 C 284.050 151.507,282.164 151.468,277.652 151.469 C 273.140 151.469,271.334 151.508,273.638 151.555 M323.001 151.555 C 324.916 151.604,327.971 151.604,329.790 151.555 C 331.609 151.506,330.042 151.466,326.308 151.466 C 322.574 151.466,321.086 151.506,323.001 151.555 " stroke="none" fill="#3c3c3c" fill-rule="evenodd"></path><path id="path4" d="M91.250 112.337 C 91.357 112.510,91.269 112.772,91.055 112.918 C 90.758 113.121,90.800 113.163,91.227 113.095 C 91.920 112.986,92.181 112.023,91.517 112.023 C 91.251 112.023,91.138 112.155,91.250 112.337 M100.141 112.588 C 100.308 112.900,100.663 113.144,100.929 113.132 C 101.224 113.118,101.276 113.054,101.061 112.967 C 100.866 112.888,100.707 112.644,100.707 112.423 C 100.707 112.203,100.512 112.023,100.273 112.023 C 99.926 112.023,99.900 112.137,100.141 112.588 M94.413 112.514 C 95.230 112.571,96.566 112.571,97.383 112.514 C 98.200 112.457,97.532 112.410,95.898 112.410 C 94.264 112.410,93.596 112.457,94.413 112.514 M88.260 113.275 C 88.260 113.497,88.037 113.737,87.765 113.808 C 87.363 113.913,87.355 113.943,87.721 113.970 C 87.970 113.988,88.403 113.748,88.685 113.437 C 89.145 112.928,89.149 112.871,88.728 112.871 C 88.471 112.871,88.260 113.053,88.260 113.275 M103.112 113.437 C 103.393 113.748,103.890 113.985,104.216 113.964 C 104.771 113.928,104.768 113.918,104.173 113.803 C 103.822 113.736,103.536 113.498,103.536 113.276 C 103.536 113.053,103.325 112.871,103.068 112.871 C 102.647 112.871,102.651 112.928,103.112 113.437 M12.871 113.437 C 12.387 113.645,12.377 113.683,12.801 113.700 C 13.091 113.712,13.296 113.942,13.296 114.255 C 13.296 114.550,13.475 114.860,13.693 114.944 C 14.032 115.074,14.034 114.987,13.708 114.358 C 13.497 113.951,13.389 113.514,13.468 113.387 C 13.636 113.115,13.616 113.117,12.871 113.437 M175.106 128.656 L 175.247 144.130 175.321 128.871 C 175.361 120.478,175.297 113.515,175.179 113.397 C 175.061 113.279,175.028 120.146,175.106 128.656 M201.262 113.508 C 201.188 113.702,201.160 124.236,201.200 136.917 L 201.273 159.972 201.414 136.563 C 201.492 123.688,201.520 113.154,201.476 113.154 C 201.432 113.154,201.336 113.313,201.262 113.508 M209.396 122.402 C 209.363 127.566,209.431 131.850,209.547 131.923 C 209.664 131.995,209.727 129.234,209.688 125.787 C 209.553 114.100,209.457 112.982,209.396 122.402 M234.364 136.492 C 234.364 149.406,234.399 154.730,234.441 148.324 C 234.484 141.918,234.484 131.352,234.441 124.844 C 234.399 118.337,234.364 123.579,234.364 136.492 M260.390 136.492 C 260.390 149.406,260.424 154.730,260.467 148.324 C 260.509 141.918,260.509 131.352,260.467 124.844 C 260.424 118.337,260.390 123.579,260.390 136.492 M318.812 132.296 C 318.935 148.991,319.008 151.453,319.378 151.554 C 319.631 151.623,319.688 151.575,319.519 151.436 C 319.333 151.282,319.285 144.690,319.378 132.178 C 319.502 115.394,319.469 113.154,319.095 113.154 C 318.720 113.154,318.687 115.407,318.812 132.296 M356.288 136.492 C 356.288 149.406,356.322 154.730,356.365 148.324 C 356.407 141.918,356.407 131.352,356.365 124.844 C 356.322 118.337,356.288 123.579,356.288 136.492 M152.324 128.713 C 152.324 137.192,152.360 140.661,152.404 136.421 C 152.448 132.182,152.448 125.244,152.404 121.004 C 152.360 116.764,152.324 120.233,152.324 128.713 M376.232 113.932 C 376.428 114.337,376.795 114.569,377.238 114.569 C 377.621 114.569,377.935 114.696,377.935 114.851 C 377.935 115.007,378.058 115.134,378.209 115.134 C 378.360 115.134,378.410 114.943,378.320 114.710 C 378.231 114.477,377.835 114.286,377.441 114.286 C 377.047 114.286,376.544 114.063,376.324 113.791 C 375.963 113.344,375.954 113.358,376.232 113.932 M86.846 113.956 C 86.846 114.137,86.541 114.286,86.169 114.286 C 85.785 114.286,85.410 114.500,85.303 114.781 C 85.152 115.178,85.186 115.206,85.471 114.922 C 85.667 114.728,86.049 114.569,86.320 114.569 C 86.849 114.569,87.294 114.074,87.016 113.795 C 86.922 113.702,86.846 113.774,86.846 113.956 M374.328 113.915 C 374.600 113.986,375.046 113.986,375.318 113.915 C 375.591 113.844,375.368 113.786,374.823 113.786 C 374.279 113.786,374.056 113.844,374.328 113.915 M104.950 114.163 C 104.950 114.208,105.323 114.430,105.778 114.657 C 106.406 114.971,106.572 114.983,106.466 114.707 C 106.351 114.407,104.950 113.904,104.950 114.163 M41.938 114.473 C 41.743 114.552,41.584 114.923,41.584 115.299 C 41.584 115.698,41.418 115.983,41.186 115.983 C 40.929 115.983,40.840 116.181,40.936 116.545 C 41.029 116.902,40.916 117.172,40.626 117.283 C 40.375 117.379,40.170 117.587,40.170 117.745 C 40.170 118.280,41.024 117.330,41.472 116.298 C 41.715 115.736,42.032 115.053,42.176 114.781 C 42.320 114.508,42.405 114.296,42.364 114.308 C 42.324 114.320,42.132 114.395,41.938 114.473 M83.380 115.462 C 82.804 116.069,83.107 116.156,83.864 115.602 C 84.151 115.392,84.271 115.158,84.131 115.081 C 83.990 115.004,83.653 115.176,83.380 115.462 M379.151 115.082 C 378.943 115.211,379.080 115.402,379.533 115.616 C 380.175 115.919,380.206 115.906,379.874 115.471 C 379.674 115.208,379.502 114.968,379.492 114.938 C 379.482 114.907,379.329 114.972,379.151 115.082 M22.914 116.010 C 22.914 116.151,23.017 116.266,23.144 116.266 C 23.270 116.266,23.549 116.712,23.763 117.257 C 24.011 117.889,24.228 118.126,24.361 117.910 C 24.478 117.721,24.372 117.426,24.120 117.242 C 23.873 117.062,23.746 116.717,23.838 116.476 C 23.947 116.194,23.813 115.988,23.460 115.896 C 23.160 115.817,22.914 115.868,22.914 116.010 M49.900 116.195 C 49.815 116.467,49.608 116.945,49.439 117.256 C 49.163 117.763,49.180 117.781,49.601 117.434 C 49.859 117.220,50.071 116.817,50.071 116.538 C 50.071 116.259,50.230 115.966,50.424 115.887 C 50.701 115.776,50.699 115.740,50.415 115.722 C 50.216 115.710,49.984 115.923,49.900 116.195 M108.184 115.905 C 108.484 115.981,108.907 116.222,109.124 116.439 C 109.933 117.248,112.008 118.538,111.854 118.137 C 111.767 117.910,111.285 117.529,110.784 117.291 C 110.282 117.053,109.635 116.598,109.347 116.279 C 109.059 115.961,108.557 115.715,108.231 115.733 C 107.684 115.763,107.680 115.777,108.184 115.905 M14.530 116.729 C 14.940 117.139,15.276 117.698,15.276 117.972 C 15.276 118.245,15.461 118.540,15.688 118.626 C 15.994 118.744,15.950 118.516,15.516 117.737 C 14.770 116.398,14.428 115.983,14.071 115.983 C 13.913 115.983,14.120 116.319,14.530 116.729 M24.360 118.670 C 25.779 121.897,26.055 122.279,26.477 121.597 C 26.597 121.403,26.555 121.347,26.374 121.459 C 26.073 121.645,25.177 120.187,25.177 119.510 C 25.177 119.320,24.965 118.989,24.706 118.776 C 24.448 118.562,24.292 118.515,24.360 118.670 M78.216 119.558 C 77.750 120.125,77.210 120.752,77.016 120.953 C 76.821 121.153,76.662 121.407,76.662 121.517 C 76.662 121.627,76.344 122.012,75.955 122.373 C 75.566 122.733,75.248 123.225,75.248 123.466 C 75.248 123.707,75.120 123.904,74.965 123.904 C 74.809 123.904,74.682 124.143,74.682 124.435 C 74.682 124.727,74.491 125.125,74.257 125.318 C 74.024 125.512,73.833 125.799,73.833 125.957 C 73.833 126.114,74.088 125.920,74.399 125.524 C 74.710 125.128,74.965 124.714,74.965 124.602 C 74.965 124.414,77.425 120.828,77.776 120.505 C 78.547 119.795,79.543 118.529,79.330 118.529 C 79.183 118.529,78.682 118.992,78.216 119.558 M383.029 118.829 C 383.028 119.071,383.214 119.517,383.442 119.819 C 383.983 120.533,383.988 120.224,383.453 119.198 C 383.221 118.752,383.030 118.586,383.029 118.829 M16.337 119.958 C 16.531 120.168,16.690 120.514,16.690 120.727 C 16.690 120.941,16.881 121.306,17.115 121.540 C 17.348 121.773,17.539 121.911,17.539 121.846 C 17.539 121.513,16.610 119.930,16.319 119.766 C 16.089 119.637,16.094 119.697,16.337 119.958 M47.840 120.438 C 47.822 120.789,47.686 121.075,47.538 121.075 C 47.133 121.075,46.326 122.946,46.478 123.533 C 46.565 123.869,46.622 123.778,46.643 123.267 C 46.661 122.839,46.803 122.489,46.959 122.489 C 47.115 122.489,47.242 122.281,47.242 122.026 C 47.242 121.770,47.447 121.412,47.697 121.229 C 47.956 121.039,48.092 120.661,48.013 120.349 C 47.891 119.873,47.869 119.884,47.840 120.438 M91.110 120.908 C 90.884 121.181,90.873 121.365,91.075 121.491 C 91.239 121.592,91.372 121.485,91.372 121.254 C 91.372 121.023,91.595 120.775,91.867 120.704 C 92.285 120.595,92.290 120.570,91.902 120.542 C 91.648 120.524,91.292 120.689,91.110 120.908 M99.667 120.708 C 100.012 120.797,100.124 120.998,100.004 121.312 C 99.868 121.670,99.904 121.704,100.157 121.453 C 100.574 121.039,100.262 120.499,99.630 120.542 C 99.219 120.570,99.225 120.594,99.667 120.708 M384.088 121.115 C 384.282 121.311,384.441 121.748,384.441 122.087 C 384.441 122.818,385.144 123.521,385.423 123.069 C 385.524 122.906,385.408 122.772,385.165 122.772 C 384.867 122.772,384.724 122.507,384.724 121.954 C 384.724 121.435,384.543 121.067,384.229 120.947 C 383.832 120.796,383.804 120.829,384.088 121.115 M370.795 121.275 C 371.147 121.343,371.656 121.340,371.927 121.269 C 372.197 121.199,371.909 121.143,371.287 121.146 C 370.665 121.149,370.443 121.207,370.795 121.275 M114.569 121.521 C 114.569 121.600,114.889 122.010,115.281 122.431 L 115.993 123.197 115.635 122.424 C 115.322 121.751,114.569 121.112,114.569 121.521 M268.741 126.468 C 268.741 131.352,268.928 132.673,269.616 132.673 C 269.776 132.673,269.831 132.551,269.739 132.402 C 269.646 132.253,269.565 129.707,269.557 126.745 C 269.545 122.292,269.473 121.358,269.142 121.358 C 268.811 121.358,268.741 122.248,268.741 126.468 M87.741 122.343 C 86.818 122.852,86.353 123.338,86.789 123.338 C 86.976 123.338,87.129 123.211,87.129 123.055 C 87.129 122.900,87.370 122.772,87.664 122.772 C 87.959 122.772,88.273 122.581,88.363 122.348 C 88.452 122.115,88.498 121.936,88.464 121.951 C 88.430 121.967,88.105 122.143,87.741 122.343 M103.544 122.402 C 103.929 122.666,104.307 122.959,104.385 123.055 C 104.657 123.391,105.928 124.187,106.191 124.187 C 106.337 124.187,105.746 123.678,104.877 123.055 C 104.008 122.433,103.195 121.924,103.071 121.924 C 102.946 121.924,103.159 122.139,103.544 122.402 M374.410 122.274 C 374.573 122.699,375.676 123.451,375.663 123.128 C 375.658 123.010,375.342 122.687,374.961 122.410 C 374.524 122.092,374.320 122.042,374.410 122.274 M38.190 122.442 C 38.190 122.624,38.011 122.772,37.792 122.772 C 37.531 122.772,37.446 122.970,37.544 123.348 C 37.684 123.884,37.722 123.871,38.089 123.164 C 38.305 122.747,38.417 122.339,38.336 122.259 C 38.255 122.178,38.190 122.261,38.190 122.442 M26.308 123.064 C 26.308 123.215,26.436 123.338,26.591 123.338 C 26.747 123.338,26.874 123.577,26.874 123.869 C 26.874 124.161,27.065 124.559,27.298 124.752 C 27.592 124.996,27.723 125.006,27.723 124.787 C 27.723 124.612,27.595 124.470,27.440 124.470 C 27.284 124.470,27.157 124.165,27.157 123.793 C 27.157 123.420,26.966 123.042,26.733 122.953 C 26.499 122.863,26.308 122.913,26.308 123.064 M18.703 124.540 C 18.679 125.107,18.805 125.317,19.165 125.314 C 19.480 125.311,19.543 125.234,19.340 125.102 C 19.163 124.987,18.955 124.639,18.877 124.328 C 18.769 123.895,18.728 123.944,18.703 124.540 M144.114 132.390 C 144.114 136.980,144.153 138.858,144.200 136.563 C 144.248 134.268,144.248 130.513,144.200 128.218 C 144.153 125.923,144.114 127.801,144.114 132.390 M106.931 125.035 C 107.289 125.347,107.647 125.601,107.725 125.601 C 107.803 125.601,107.637 125.347,107.355 125.035 C 107.073 124.724,106.716 124.470,106.561 124.470 C 106.405 124.470,106.572 124.724,106.931 125.035 M116.728 124.660 C 116.905 124.789,117.096 125.138,117.153 125.436 C 117.209 125.735,117.447 126.031,117.680 126.094 C 117.960 126.171,117.996 126.131,117.784 125.976 C 117.607 125.848,117.416 125.499,117.359 125.200 C 117.303 124.902,117.065 124.606,116.832 124.542 C 116.552 124.466,116.516 124.506,116.728 124.660 M376.238 124.843 C 376.238 125.071,376.429 125.331,376.662 125.421 C 376.895 125.510,377.086 125.515,377.086 125.431 C 377.086 125.347,376.895 125.087,376.662 124.854 C 376.294 124.485,376.238 124.484,376.238 124.843 M44.967 125.617 C 44.628 126.093,44.429 126.560,44.524 126.655 C 44.618 126.749,44.696 126.665,44.696 126.467 C 44.696 126.268,44.880 126.177,45.106 126.264 C 45.384 126.370,45.464 126.285,45.353 125.997 C 45.263 125.761,45.426 125.396,45.721 125.172 C 46.013 124.951,46.101 124.766,45.917 124.761 C 45.734 124.757,45.306 125.142,44.967 125.617 M36.562 125.595 C 36.368 125.905,36.209 126.405,36.209 126.705 C 36.209 127.006,36.079 127.316,35.919 127.395 C 35.760 127.474,35.792 127.507,35.990 127.467 C 36.188 127.428,36.395 127.087,36.450 126.711 C 36.505 126.334,36.679 125.945,36.838 125.846 C 36.997 125.747,37.079 125.523,37.021 125.348 C 36.961 125.169,36.760 125.278,36.562 125.595 M83.504 126.025 C 83.166 126.414,83.001 126.733,83.138 126.733 C 83.274 126.733,83.595 126.414,83.850 126.025 C 84.104 125.636,84.269 125.318,84.216 125.318 C 84.163 125.318,83.842 125.636,83.504 126.025 M107.992 126.071 C 108.186 126.150,108.345 126.393,108.345 126.612 C 108.345 127.066,109.200 128.147,109.560 128.147 C 109.692 128.147,109.589 127.936,109.332 127.679 C 109.074 127.421,108.750 126.912,108.611 126.547 C 108.473 126.183,108.197 125.894,107.999 125.906 C 107.715 125.924,107.713 125.959,107.992 126.071 M19.590 126.551 C 19.862 126.763,20.085 127.145,20.085 127.400 C 20.085 127.655,20.203 127.864,20.348 127.864 C 20.493 127.864,20.652 128.141,20.702 128.479 C 20.751 128.816,20.943 129.142,21.127 129.203 C 21.311 129.264,21.146 128.680,20.760 127.907 C 20.375 127.133,19.843 126.425,19.577 126.333 C 19.138 126.180,19.139 126.200,19.590 126.551 M385.356 127.440 C 385.356 128.218,385.414 128.632,385.485 128.359 C 385.556 128.087,385.732 127.864,385.876 127.864 C 386.021 127.864,386.139 127.602,386.139 127.282 C 386.139 126.961,386.021 126.772,385.877 126.861 C 385.733 126.950,385.557 126.798,385.486 126.524 C 385.414 126.250,385.356 126.662,385.356 127.440 M73.400 126.874 C 73.327 127.107,73.205 127.496,73.129 127.737 C 73.052 127.982,73.115 128.100,73.271 128.004 C 73.424 127.909,73.550 127.594,73.550 127.305 C 73.550 127.016,73.709 126.716,73.904 126.637 C 74.181 126.525,74.179 126.490,73.895 126.472 C 73.696 126.460,73.473 126.641,73.400 126.874 M28.766 127.885 C 29.269 128.893,29.383 128.929,29.210 128.025 C 29.138 127.646,28.915 127.274,28.716 127.197 C 28.440 127.092,28.452 127.257,28.766 127.885 M117.963 127.688 C 117.963 127.747,118.154 127.953,118.388 128.147 C 118.735 128.436,118.812 128.416,118.812 128.040 C 118.812 127.788,118.621 127.581,118.388 127.581 C 118.154 127.581,117.963 127.629,117.963 127.688 M81.824 128.423 C 81.338 129.201,81.382 129.408,81.918 128.872 C 82.164 128.626,82.323 128.298,82.271 128.142 C 82.219 127.986,82.018 128.113,81.824 128.423 M35.149 128.617 C 34.954 128.696,34.795 129.004,34.795 129.302 C 34.795 129.600,34.668 129.844,34.512 129.844 C 34.356 129.844,34.229 130.117,34.229 130.450 C 34.229 130.783,34.006 131.235,33.734 131.455 C 33.287 131.817,33.301 131.826,33.876 131.547 C 34.226 131.378,34.512 131.056,34.512 130.833 C 34.512 130.610,34.764 129.978,35.073 129.429 C 35.381 128.879,35.604 128.440,35.568 128.452 C 35.532 128.465,35.343 128.539,35.149 128.617 M43.342 129.003 C 43.153 129.306,42.999 129.747,42.999 129.982 C 42.999 130.218,42.871 130.410,42.716 130.410 C 42.560 130.410,42.433 130.533,42.433 130.684 C 42.433 130.835,42.624 130.885,42.857 130.795 C 43.091 130.706,43.281 130.337,43.281 129.976 C 43.281 129.615,43.469 129.279,43.698 129.229 C 43.946 129.174,44.028 128.998,43.901 128.795 C 43.746 128.548,43.590 128.607,43.342 129.003 M385.073 129.844 C 385.073 130.389,385.131 130.612,385.202 130.339 C 385.273 130.067,385.273 129.622,385.202 129.349 C 385.131 129.077,385.073 129.300,385.073 129.844 M110.010 129.510 C 110.249 129.676,110.347 130.074,110.262 130.522 C 110.166 131.024,110.244 131.259,110.506 131.259 C 110.718 131.259,110.891 131.471,110.891 131.730 C 110.891 131.990,110.964 132.129,111.052 132.040 C 111.320 131.773,110.419 129.449,110.004 129.339 C 109.687 129.254,109.689 129.285,110.010 129.510 M118.816 129.679 C 118.969 129.832,119.095 130.389,119.095 130.917 C 119.095 131.448,119.347 132.198,119.661 132.596 L 120.226 133.315 120.226 132.579 C 120.226 132.019,120.117 131.884,119.772 132.017 C 119.385 132.165,119.332 131.984,119.418 130.795 C 119.503 129.620,119.442 129.399,119.028 129.399 C 118.705 129.400,118.633 129.496,118.816 129.679 M376.591 129.749 C 376.397 129.827,376.238 130.136,376.238 130.434 C 376.238 130.732,376.110 130.976,375.955 130.976 C 375.799 130.976,375.672 131.111,375.672 131.276 C 375.672 131.766,376.172 131.308,376.622 130.405 C 376.854 129.941,377.021 129.572,376.994 129.584 C 376.967 129.596,376.786 129.670,376.591 129.749 M21.499 130.269 C 21.499 130.502,21.611 130.693,21.747 130.693 C 21.883 130.693,22.198 131.107,22.448 131.612 C 22.697 132.118,22.904 132.380,22.907 132.194 C 22.914 131.844,21.812 129.844,21.613 129.844 C 21.550 129.844,21.499 130.035,21.499 130.269 M80.506 132.080 C 80.168 132.453,80.054 132.950,80.132 133.706 L 80.244 134.795 80.292 133.593 C 80.326 132.734,80.461 132.390,80.764 132.390 C 80.997 132.390,81.188 132.199,81.188 131.966 C 81.188 131.415,81.093 131.431,80.506 132.080 M374.600 132.260 C 374.105 132.821,374.726 132.811,375.288 132.249 C 375.613 131.924,375.624 131.827,375.338 131.835 C 375.133 131.841,374.800 132.032,374.600 132.260 M384.630 132.013 C 384.526 132.117,384.441 132.473,384.441 132.805 C 384.441 133.137,384.282 133.569,384.088 133.765 C 383.804 134.051,383.832 134.084,384.229 133.933 C 384.539 133.815,384.724 133.446,384.724 132.947 C 384.724 132.425,384.895 132.104,385.219 132.020 C 385.616 131.916,385.625 131.884,385.266 131.857 C 385.020 131.839,384.734 131.909,384.630 132.013 M41.358 132.730 C 41.171 132.917,41.018 133.298,41.018 133.579 C 41.018 133.859,40.891 134.088,40.736 134.088 C 40.580 134.088,40.453 134.211,40.453 134.362 C 40.453 134.512,40.644 134.562,40.877 134.473 C 41.110 134.383,41.301 134.031,41.301 133.690 C 41.301 133.348,41.454 132.917,41.641 132.730 C 41.827 132.543,41.917 132.390,41.839 132.390 C 41.761 132.390,41.545 132.543,41.358 132.730 M32.921 133.088 C 32.833 133.317,32.827 133.667,32.907 133.866 C 32.987 134.066,33.063 133.953,33.075 133.616 C 33.088 133.279,33.257 132.939,33.451 132.861 C 33.728 132.749,33.726 132.713,33.442 132.696 C 33.243 132.683,33.008 132.860,32.921 133.088 M373.536 132.934 C 373.388 133.078,372.885 133.250,372.419 133.316 L 371.570 133.437 372.455 133.480 C 372.942 133.503,373.498 133.331,373.692 133.098 C 374.077 132.633,373.966 132.517,373.536 132.934 M369.637 133.401 C 369.786 133.790,369.467 133.834,367.095 133.754 C 365.603 133.704,364.483 133.764,364.607 133.887 C 365.096 134.374,370.142 133.984,370.244 133.451 C 370.301 133.153,370.165 132.956,369.902 132.956 C 369.622 132.956,369.527 133.115,369.637 133.401 M71.853 134.401 C 71.853 135.317,71.763 135.528,71.429 135.400 C 71.096 135.272,71.004 135.477,71.004 136.351 C 71.004 137.203,71.100 137.428,71.411 137.308 C 71.719 137.190,71.841 137.451,71.913 138.378 C 71.966 139.052,72.025 138.172,72.044 136.421 C 72.063 134.671,72.028 133.239,71.966 133.239 C 71.904 133.239,71.853 133.762,71.853 134.401 M23.479 134.071 C 23.479 134.236,23.607 134.371,23.762 134.371 C 23.918 134.371,24.045 134.546,24.045 134.760 C 24.045 134.975,24.233 135.306,24.462 135.496 C 24.817 135.791,24.814 135.713,24.444 134.970 C 23.981 134.043,23.479 133.575,23.479 134.071 M110.891 135.422 C 110.891 135.715,111.044 136.107,111.231 136.294 C 111.495 136.558,111.495 136.634,111.231 136.634 C 111.044 136.634,110.891 136.963,110.891 137.364 C 110.891 137.823,111.023 138.051,111.245 137.977 C 111.463 137.905,111.598 137.335,111.598 136.492 C 111.598 135.650,111.463 135.080,111.245 135.007 C 111.045 134.941,110.891 135.121,110.891 135.422 M39.793 135.408 C 39.689 135.512,39.604 135.830,39.604 136.115 C 39.604 136.400,39.477 136.634,39.321 136.634 C 39.165 136.634,39.053 136.984,39.071 137.412 C 39.096 138.000,39.137 138.051,39.240 137.624 C 39.315 137.313,39.491 136.937,39.631 136.789 C 39.772 136.641,39.887 136.302,39.887 136.035 C 39.887 135.768,40.046 135.485,40.240 135.407 C 40.438 135.327,40.459 135.254,40.288 135.242 C 40.119 135.229,39.896 135.304,39.793 135.408 M382.938 136.047 C 382.595 136.735,382.592 136.849,382.918 136.724 C 383.133 136.641,383.310 136.343,383.310 136.061 C 383.310 135.780,383.469 135.485,383.663 135.407 C 383.911 135.307,383.917 135.257,383.684 135.242 C 383.501 135.229,383.165 135.592,382.938 136.047 M37.830 139.438 C 37.375 140.352,37.269 140.778,37.522 140.681 C 37.734 140.600,37.907 140.293,37.907 139.998 C 37.907 139.703,38.019 139.463,38.157 139.463 C 38.294 139.463,38.467 139.144,38.542 138.755 C 38.734 137.749,38.615 137.864,37.830 139.438 M80.097 138.803 C 80.075 139.296,80.134 139.900,80.228 140.147 C 80.416 140.635,81.188 140.768,81.188 140.311 C 81.188 140.156,81.031 140.060,80.838 140.099 C 80.628 140.141,80.418 139.717,80.313 139.038 C 80.152 138.004,80.133 137.984,80.097 138.803 M119.943 139.852 C 119.943 140.067,119.752 140.400,119.519 140.594 C 119.283 140.790,119.095 141.407,119.095 141.987 C 119.095 142.559,118.949 143.173,118.771 143.351 C 118.528 143.593,118.581 143.639,118.984 143.534 C 119.430 143.417,119.504 143.181,119.421 142.135 C 119.341 141.128,119.411 140.877,119.773 140.877 C 120.068 140.877,120.226 140.630,120.226 140.170 C 120.226 139.781,120.163 139.463,120.085 139.463 C 120.007 139.463,119.943 139.638,119.943 139.852 M379.066 139.698 C 379.066 139.880,378.816 140.028,378.511 140.028 C 378.205 140.028,377.819 140.283,377.652 140.594 C 377.447 140.978,377.444 141.160,377.642 141.160 C 377.803 141.160,377.935 140.969,377.935 140.736 C 377.935 140.502,378.182 140.311,378.484 140.311 C 379.059 140.311,379.528 139.829,379.236 139.538 C 379.143 139.445,379.066 139.517,379.066 139.698 M209.464 140.384 C 209.389 140.579,209.363 145.067,209.406 150.355 L 209.484 159.972 209.551 150.165 C 209.603 142.635,209.700 140.325,209.972 140.216 C 210.249 140.104,210.247 140.068,209.963 140.051 C 209.763 140.038,209.539 140.188,209.464 140.384 M269.034 140.575 C 268.557 141.466,268.649 150.915,269.139 151.321 C 269.478 151.603,269.530 150.823,269.492 145.986 L 269.448 140.320 277.086 140.240 L 284.724 140.160 277.026 140.094 C 269.668 140.031,269.314 140.053,269.034 140.575 M27.086 140.781 C 27.281 140.860,27.440 141.154,27.440 141.436 C 27.440 141.718,27.616 142.016,27.832 142.098 C 28.158 142.224,28.154 142.110,27.811 141.421 C 27.584 140.966,27.249 140.604,27.066 140.616 C 26.832 140.632,26.838 140.681,27.086 140.781 M110.924 141.119 C 110.901 141.578,110.763 141.737,110.481 141.629 C 110.200 141.521,110.123 141.607,110.237 141.903 C 110.482 142.541,111.274 141.687,111.093 140.981 C 110.984 140.560,110.950 140.588,110.924 141.119 M375.601 140.988 C 375.385 141.204,374.962 141.444,374.662 141.521 C 374.264 141.622,374.327 141.669,374.894 141.693 C 375.322 141.711,375.672 141.594,375.672 141.434 C 375.672 141.273,375.958 141.026,376.308 140.886 C 376.764 140.703,376.810 140.625,376.470 140.612 C 376.209 140.602,375.818 140.771,375.601 140.988 M366.337 141.653 C 364.424 141.782,363.918 142.161,365.557 142.236 C 366.219 142.266,367.397 142.354,368.175 142.431 C 369.134 142.527,369.408 142.491,369.024 142.321 C 368.346 142.019,368.741 141.809,370.297 141.640 C 371.562 141.504,368.394 141.513,366.337 141.653 M36.338 142.365 C 36.262 142.561,36.235 146.603,36.276 151.347 L 36.351 159.972 36.493 150.990 C 36.570 146.050,36.598 142.008,36.554 142.008 C 36.510 142.008,36.413 142.169,36.338 142.365 M144.089 145.262 C 144.088 146.662,144.136 147.270,144.195 146.614 C 144.255 145.957,144.255 144.812,144.197 144.068 C 144.138 143.324,144.090 143.861,144.089 145.262 M73.290 145.302 C 73.277 145.636,73.476 145.989,73.732 146.087 C 74.079 146.220,74.124 146.174,73.911 145.905 C 73.754 145.707,73.555 145.354,73.469 145.120 C 73.362 144.831,73.305 144.888,73.290 145.302 M174.540 146.384 C 174.540 146.637,174.706 146.736,174.965 146.637 C 175.198 146.547,175.389 146.360,175.389 146.222 C 175.389 146.083,175.198 145.969,174.965 145.969 C 174.731 145.969,174.540 146.156,174.540 146.384 M117.498 146.869 C 116.762 148.016,116.540 148.592,116.971 148.234 C 117.206 148.039,117.397 147.715,117.397 147.514 C 117.397 147.312,117.557 147.091,117.751 147.021 C 117.946 146.952,118.022 146.805,117.921 146.696 C 117.820 146.587,117.629 146.665,117.498 146.869 M73.833 147.026 C 73.833 147.189,74.024 147.396,74.257 147.486 C 74.491 147.575,74.682 147.849,74.682 148.094 C 74.682 148.339,75.018 148.884,75.429 149.305 L 76.175 150.071 75.570 149.178 C 75.237 148.688,74.965 148.166,74.965 148.020 C 74.965 147.874,74.710 147.523,74.399 147.242 C 74.088 146.960,73.833 146.863,73.833 147.026 M152.192 147.131 C 152.192 147.497,152.995 147.629,153.127 147.285 C 153.203 147.087,153.030 146.939,152.726 146.939 C 152.432 146.939,152.192 147.025,152.192 147.131 M165.823 148.010 C 165.639 148.194,165.488 148.512,165.488 148.715 C 165.488 149.224,164.067 150.778,163.602 150.778 C 163.395 150.778,163.225 150.896,163.225 151.041 C 163.225 151.186,162.938 151.360,162.588 151.427 C 161.987 151.543,161.985 151.552,162.549 151.588 C 163.300 151.637,165.771 149.496,165.771 148.797 C 165.771 148.512,165.930 148.222,166.124 148.153 C 166.319 148.083,166.406 147.948,166.318 147.851 C 166.230 147.755,166.007 147.826,165.823 148.010 M152.760 148.249 C 152.759 148.491,152.945 148.937,153.173 149.239 C 153.714 149.953,153.719 149.644,153.184 148.618 C 152.952 148.172,152.761 148.006,152.760 148.249 M143.706 148.788 C 143.706 148.949,143.886 149.081,144.107 149.081 C 144.327 149.081,144.572 149.240,144.650 149.434 C 144.758 149.701,144.798 149.703,144.815 149.444 C 144.827 149.255,144.583 148.964,144.272 148.798 C 143.888 148.592,143.706 148.589,143.706 148.788 M105.516 149.048 C 105.516 149.185,105.262 149.364,104.950 149.445 C 104.639 149.527,104.385 149.736,104.385 149.909 C 104.385 150.103,104.659 150.045,105.092 149.762 C 105.719 149.351,106.044 148.798,105.658 148.798 C 105.580 148.798,105.516 148.910,105.516 149.048 M174.187 149.386 C 173.914 149.545,173.702 149.891,173.714 150.155 C 173.732 150.548,173.767 150.558,173.901 150.212 C 173.992 149.979,174.268 149.633,174.515 149.443 C 175.062 149.024,174.866 148.990,174.187 149.386 M86.563 149.565 C 86.796 149.652,87.149 149.851,87.347 150.007 C 87.617 150.220,87.663 150.175,87.529 149.828 C 87.431 149.572,87.078 149.374,86.745 149.386 C 86.331 149.401,86.273 149.458,86.563 149.565 M115.338 150.283 C 114.920 150.789,114.581 151.330,114.583 151.485 C 114.586 151.641,114.845 151.450,115.159 151.061 C 115.473 150.672,115.913 150.131,116.137 149.859 C 116.360 149.586,116.443 149.364,116.320 149.364 C 116.197 149.364,115.755 149.777,115.338 150.283 M153.630 150.011 C 153.695 150.057,154.257 150.450,154.880 150.886 L 156.011 151.678 155.087 150.803 C 154.579 150.323,154.017 149.929,153.838 149.929 C 153.659 149.929,153.566 149.966,153.630 150.011 M89.607 150.749 C 88.911 150.998,90.555 151.713,91.436 151.544 C 91.921 151.451,91.858 151.411,91.181 151.382 C 90.681 151.361,90.241 151.172,90.190 150.958 C 90.135 150.724,89.906 150.642,89.607 150.749 M101.752 151.080 C 101.585 151.717,101.910 151.798,102.377 151.235 C 102.626 150.935,102.608 150.808,102.298 150.689 C 102.054 150.595,101.838 150.750,101.752 151.080 M145.615 152.380 C 145.810 152.458,145.969 152.687,145.969 152.889 C 145.969 153.090,146.156 153.410,146.386 153.601 C 146.739 153.894,146.736 153.813,146.365 153.069 C 146.124 152.587,145.778 152.202,145.595 152.215 C 145.361 152.230,145.367 152.280,145.615 152.380 M172.168 153.455 C 171.596 154.329,171.582 154.632,172.136 154.173 C 172.369 153.979,172.560 153.656,172.560 153.454 C 172.560 153.253,172.719 153.024,172.914 152.945 C 173.140 152.854,173.152 152.795,172.946 152.780 C 172.770 152.768,172.420 153.072,172.168 153.455 M146.818 154.335 C 146.818 154.503,147.136 154.939,147.525 155.304 C 148.434 156.159,148.435 155.911,147.525 154.853 C 147.136 154.401,146.818 154.168,146.818 154.335 M80.928 155.375 C 80.913 155.689,81.112 155.870,81.471 155.870 C 81.782 155.870,82.037 155.997,82.037 156.153 C 82.037 156.308,82.180 156.436,82.354 156.436 C 82.574 156.436,82.563 156.304,82.320 156.011 C 82.126 155.778,81.803 155.587,81.601 155.587 C 81.400 155.587,81.171 155.428,81.093 155.233 C 81.007 155.022,80.941 155.079,80.928 155.375 M109.830 155.808 C 108.895 156.608,108.501 157.332,109.406 156.589 C 109.678 156.366,110.219 155.926,110.608 155.612 C 110.997 155.297,111.188 155.036,111.033 155.031 C 110.877 155.026,110.336 155.376,109.830 155.808 M148.616 156.577 C 148.849 156.810,149.201 157.001,149.397 157.001 C 149.598 157.001,149.514 156.819,149.205 156.586 C 148.485 156.041,148.074 156.035,148.616 156.577 M84.090 157.284 C 84.153 157.518,84.449 157.755,84.748 157.812 C 85.046 157.869,85.395 158.060,85.524 158.236 C 85.678 158.448,85.718 158.413,85.642 158.133 C 85.578 157.900,85.282 157.662,84.984 157.605 C 84.685 157.548,84.336 157.357,84.208 157.181 C 84.053 156.969,84.013 157.004,84.090 157.284 M107.260 157.421 C 106.337 157.930,105.872 158.416,106.308 158.416 C 106.495 158.416,106.648 158.289,106.648 158.133 C 106.648 157.977,106.823 157.850,107.037 157.850 C 107.252 157.850,107.586 157.659,107.779 157.426 C 108.189 156.933,108.147 156.932,107.260 157.421 M104.816 158.591 C 104.564 158.843,104.417 159.108,104.489 159.180 C 104.561 159.253,104.886 159.046,105.210 158.722 C 105.534 158.398,105.681 158.133,105.536 158.133 C 105.392 158.133,105.068 158.339,104.816 158.591 M166.301 158.628 C 165.963 159.059,165.968 159.081,166.337 158.800 C 166.570 158.622,167.016 158.414,167.327 158.338 C 167.864 158.206,167.862 158.197,167.291 158.166 C 166.960 158.148,166.514 158.356,166.301 158.628 M89.007 159.406 C 89.117 159.694,89.568 159.830,90.412 159.830 C 91.328 159.830,91.655 159.942,91.655 160.255 C 91.655 160.488,91.782 160.679,91.938 160.679 C 92.394 160.679,92.262 159.907,91.773 159.719 C 91.527 159.625,90.891 159.547,90.359 159.547 C 89.827 159.547,89.392 159.420,89.392 159.264 C 89.392 159.109,89.268 158.982,89.118 158.982 C 88.967 158.982,88.917 159.173,89.007 159.406 M102.829 159.264 C 102.733 159.420,102.161 159.547,101.559 159.547 C 100.941 159.547,100.271 159.741,100.020 159.992 C 99.466 160.546,99.462 160.679,100.000 160.679 C 100.233 160.679,100.424 160.488,100.424 160.255 C 100.424 159.942,100.751 159.830,101.667 159.830 C 102.511 159.830,102.962 159.694,103.073 159.406 C 103.256 158.927,103.095 158.834,102.829 159.264 M153.504 159.406 C 153.611 159.683,154.051 159.830,154.769 159.830 C 155.559 159.830,155.870 159.950,155.870 160.255 C 155.870 160.488,155.997 160.679,156.153 160.679 C 156.609 160.679,156.477 159.907,155.988 159.719 C 155.742 159.625,155.240 159.547,154.873 159.547 C 154.506 159.547,154.127 159.420,154.031 159.264 C 153.756 158.819,153.324 158.935,153.504 159.406 M164.781 159.264 C 164.685 159.420,164.196 159.547,163.695 159.547 C 163.135 159.547,162.599 159.765,162.300 160.113 C 161.895 160.586,161.885 160.679,162.238 160.679 C 162.469 160.679,162.659 160.488,162.659 160.255 C 162.659 159.950,162.970 159.830,163.760 159.830 C 164.478 159.830,164.918 159.683,165.025 159.406 C 165.208 158.927,165.047 158.834,164.781 159.264 " stroke="none" fill="#343434" fill-rule="evenodd"></path></g></svg>